<svg version="1.1" id="Layer_1" xmlns="http://www.w3.org/2000/svg" xmlns:xlink="http://www.w3.org/1999/xlink" x="0px" y="0px" width="1010" height="3500" viewBox="-280 -500 1310 4259" style="enable-background:new 0 0 1310 4260;" xml:space="preserve">
    <style type="text/css">
        .st0{fill:#2B2C3D;}
        .st1{fill:#B6D8B6;}
        .st2{fill:#2B2C3D;stroke:#2B2C3D;stroke-miterlimit:10;}
        .st3{fill:none;}
        .st4{fill:#232433;}
        .st5{font-family:'Source Sans Pro';}
        .st6{font-size:19px;}
        .st7{fill:none;stroke:#232333;stroke-width:0.5;stroke-miterlimit:10;}
        .st8{fill:#6A9AD1;stroke:#6A9AD1;stroke-width:0.5;stroke-miterlimit:10;}
        .st9{fill:#6A9AD1;}
        .st10{fill:#727373;}
        .st11{fill:#FFFFFF;}
        .st12{clip-path:url(#SVGID_2_);}
        .st13{clip-path:url(#SVGID_4_);}
        .st14{fill:#B4D6EC;stroke:#B4D6EC;stroke-width:0.5;stroke-miterlimit:10;}
        .st15{clip-path:url(#SVGID_6_);}
        .st16{clip-path:url(#SVGID_8_);}
        .st17{clip-path:url(#SVGID_10_);}
        .st18{clip-path:url(#SVGID_12_);}
        .st19{clip-path:url(#SVGID_14_);}
        .st20{fill:#3A3A3A;}
        .st21{fill:#739B73;}
        .st22{clip-path:url(#SVGID_16_);}
    </style>
    <g id="background">
        <g>
            <polygon class="st0" points="1050.9,-612.2 1050.9,3641 -258.5,3636.5 -258.5,-616.7         "/>
            <circle class="st1" cx="393.7" cy="162.5" r="25.7"/>
            <rect x="383.6" y="-218" class="st1" width="20.1" height="3622.1"/>
            <circle class="st1" cx="393.7" cy="324.9" r="25.7"/>
            <polygon class="st2" points="403.7,75.1 393.7,82.6 383.6,75.1 383.6,84.6 393.7,92.6 403.7,83.8         "/>
            <circle class="st1" cx="393.7" cy="487.3" r="25.7"/>
            <circle class="st1" cx="393.7" cy="649.8" r="25.7"/>
            <circle class="st1" cx="393.7" cy="812.2" r="25.7"/>
            <circle class="st1" cx="393.7" cy="974.6" r="25.7"/>
            <circle class="st1" cx="393.7" cy="1137" r="25.7"/>
            <circle class="st1" cx="393.7" cy="1299.4" r="25.7"/>
            <circle class="st1" cx="393.7" cy="1461.8" r="25.7"/>
            <circle class="st1" cx="393.7" cy="1624.2" r="25.7"/>
            <circle class="st1" cx="393.7" cy="1786.6" r="25.7"/>
            <circle class="st1" cx="393.7" cy="0.1" r="25.7"/>
            <circle class="st1" cx="393.5" cy="1949" r="25.7"/>
            <circle class="st1" cx="393.5" cy="2111.5" r="25.7"/>
            <circle class="st1" cx="393.5" cy="2273.9" r="25.7"/>
            <circle class="st1" cx="393.5" cy="2436.3" r="25.7"/>
            <circle class="st1" cx="393.5" cy="2598.7" r="25.7"/>
            <circle class="st1" cx="393.5" cy="2761.1" r="25.7"/>
            <circle class="st1" cx="393.5" cy="2923.5" r="25.7"/>
            <polygon class="st2" points="403.7,235 393.7,242.5 383.6,235 383.6,244.5 393.7,252.5 403.7,243.7         "/>
            <polygon class="st2" points="403.7,559.8 393.7,567.3 383.6,559.8 383.6,569.3 393.7,577.3 403.7,568.5         "/>
            <polygon class="st2" points="403.7,884.6 393.7,892.1 383.6,884.6 383.6,894.1 393.7,902.1 403.7,893.4         "/>
            <polygon class="st2" points="403.7,1047 393.7,1054.5 383.6,1047 383.6,1056.5 393.7,1064.5 403.7,1055.8         "/>
            <polygon class="st2" points="403.7,1209.4 393.7,1216.9 383.6,1209.4 383.6,1218.9 393.7,1226.9 403.7,1218.2         "/>
            <polygon class="st2" points="403.7,1371.9 393.7,1379.4 383.6,1371.9 383.6,1381.4 393.7,1389.4 403.7,1380.6         "/>
            <polygon class="st2" points="403.7,1534.3 393.7,1541.8 383.6,1534.3 383.6,1543.8 393.7,1551.8 403.7,1543         "/>
            <polygon class="st2" points="403.7,397.4 393.7,404.9 383.6,397.4 383.6,406.9 393.7,414.9 403.7,406.1         "/>
            <polygon class="st2" points="403.7,708.9 393.7,716.4 383.6,708.9 383.6,718.4 393.7,726.4 403.7,717.7         "/>
            <polygon class="st2" points="403.7,1696.7 393.7,1704.2 383.6,1696.7 383.6,1706.2 393.7,1714.2 403.7,1705.4         "/>
            <polygon class="st2" points="403.7,1859.1 393.7,1866.6 383.6,1859.1 383.6,1868.6 393.7,1876.6 403.7,1867.8         "/>
            <polygon class="st2" points="403.7,2021.5 393.7,2029 383.6,2021.5 383.6,2031 393.7,2039 403.7,2030.3         "/>
            <polygon class="st2" points="403.7,2183.9 393.7,2191.4 383.6,2183.9 383.6,2193.4 393.7,2201.4 403.7,2192.7         "/>
            <polygon class="st2" points="403.7,2345 393.7,2352.5 383.6,2345 383.6,2354.5 393.7,2362.5 403.7,2353.7         "/>
            <polygon class="st2" points="403.7,2508.7 393.7,2516.2 383.6,2508.7 383.6,2518.2 393.7,2526.2 403.7,2517.5         "/>
            <polygon class="st2" points="403.7,2671.1 393.7,2678.6 383.6,2671.1 383.6,2680.6 393.7,2688.6 403.7,2679.9         "/>
            <polygon class="st2" points="403.7,2828.6 393.7,2836.1 383.6,2828.6 383.6,2838.1 393.7,2846.1 403.7,2837.4         "/>
            <polygon class="st2" points="403.7,3171.8 393.7,3179.3 383.6,3171.8 383.6,3181.3 393.7,3189.3 403.7,3180.5         "/>
            <rect x="369.4" y="-6.1" class="st3" width="48.1" height="22.9"/>
            <text transform="matrix(1 0 0 1 374.1375 6.6209)" class="st4 st5 st6">1997</text>
            <text transform="matrix(1 0 0 1 374.1375 6.6209)" class="st7 st5 st6">1997</text>
            <rect x="369.6" y="156.8" class="st3" width="48.1" height="22.9"/>
            <text transform="matrix(1 0 0 1 373.6863 169.4713)" class="st4 st5 st6">1998</text>
            <text transform="matrix(1 0 0 1 373.6863 169.4713)" class="st7 st5 st6">1998</text>
            <rect x="369.6" y="319.5" class="st3" width="48.1" height="22.9"/>
            <text transform="matrix(1 0 0 1 373.6013 332.1379)" class="st4 st5 st6">1999</text>
            <text transform="matrix(1 0 0 1 373.6013 332.1379)" class="st7 st5 st6">1999</text>
            <rect x="369.4" y="481.5" class="st3" width="48.1" height="22.9"/>
            <text transform="matrix(1 0 0 1 370.4509 494.1379)" class="st4 st5 st6">2000</text>
            <text transform="matrix(1 0 0 1 370.4509 494.1379)" class="st7 st5 st6">2000</text>
            <rect x="369.4" y="643.1" class="st3" width="48.1" height="22.9"/>
            <text transform="matrix(1 0 0 1 373.0447 655.8046)" class="st4 st5 st6">2001</text>
            <text transform="matrix(1 0 0 1 373.0447 655.8046)" class="st7 st5 st6">2001</text>
            <rect x="369.4" y="806.5" class="st3" width="48.1" height="22.9"/>
            <text transform="matrix(1 0 0 1 370.6794 819.1728)" class="st4 st5 st6">2002</text>
            <text transform="matrix(1 0 0 1 370.6794 819.1728)" class="st7 st5 st6">2002</text>
            <rect x="369.6" y="969" class="st3" width="48.1" height="22.9"/>
            <text transform="matrix(1 0 0 1 371.1589 981.6728)" class="st4 st5 st6">2003</text>
            <text transform="matrix(1 0 0 1 371.1589 981.6728)" class="st7 st5 st6">2003</text>
            <rect x="369.4" y="1131" class="st3" width="48.1" height="22.9"/>
            <text transform="matrix(1 0 0 1 370.9646 1143.6729)" class="st4 st5 st6">2004</text>
            <text transform="matrix(1 0 0 1 370.9646 1143.6729)" class="st7 st5 st6">2004</text>
            <rect x="369.6" y="1293.5" class="st3" width="48.1" height="22.9"/>
            <text transform="matrix(1 0 0 1 370.8455 1306.1729)" class="st4 st5 st6">2005</text>
            <text transform="matrix(1 0 0 1 370.8455 1306.1729)" class="st7 st5 st6">2005</text>
            <rect x="369.6" y="1455.9" class="st3" width="48.1" height="22.9"/>
            <text transform="matrix(1 0 0 1 370.8367 1468.5928)" class="st4 st5 st6">2006</text>
            <text transform="matrix(1 0 0 1 370.8367 1468.5928)" class="st7 st5 st6">2006</text>
            <rect x="369.4" y="1618.9" class="st3" width="48.1" height="22.9"/>
            <text transform="matrix(1 0 0 1 371.3728 1631.6069)" class="st4 st5 st6">2007</text>
            <text transform="matrix(1 0 0 1 371.3728 1631.6069)" class="st7 st5 st6">2007</text>
            <rect x="369.4" y="1780.5" class="st3" width="48.1" height="22.9"/>
            <text transform="matrix(1 0 0 1 370.7361 1793.1729)" class="st4 st5 st6">2008</text>
            <text transform="matrix(1 0 0 1 370.7361 1793.1729)" class="st7 st5 st6">2008</text>
            <rect x="369.4" y="1943" class="st3" width="48.1" height="22.9"/>
            <text transform="matrix(1 0 0 1 370.6511 1955.6729)" class="st4 st5 st6">2009</text>
            <text transform="matrix(1 0 0 1 370.6511 1955.6729)" class="st7 st5 st6">2009</text>
            <rect x="369.4" y="2105" class="st3" width="48.1" height="22.9"/>
            <text transform="matrix(1 0 0 1 373.0447 2117.6729)" class="st4 st5 st6">2010</text>
            <text transform="matrix(1 0 0 1 373.0447 2117.6729)" class="st7 st5 st6">2010</text>
            <rect x="369.4" y="2267" class="st3" width="48.1" height="22.9"/>
            <text transform="matrix(1 0 0 1 375.6384 2279.6729)" class="st4 st5 st6">2011</text>
            <text transform="matrix(1 0 0 1 375.6384 2279.6729)" class="st7 st5 st6">2011</text>
            <rect x="369.4" y="2430" class="st3" width="48.1" height="22.9"/>
            <text transform="matrix(1 0 0 1 373.2732 2442.6729)" class="st4 st5 st6">2012</text>
            <text transform="matrix(1 0 0 1 373.2732 2442.6729)" class="st7 st5 st6">2012</text>
            <rect x="369.4" y="2593" class="st3" width="48.1" height="22.9"/>
            <text transform="matrix(1 0 0 1 373.5671 2605.6729)" class="st4 st5 st6">2013</text>
            <text transform="matrix(1 0 0 1 373.5671 2605.6729)" class="st7 st5 st6">2013</text>
            <rect x="368.8" y="2754.5" class="st3" width="48.1" height="22.9"/>
            <text transform="matrix(1 0 0 1 372.9346 2767.1729)" class="st4 st5 st6">2014</text>
            <text transform="matrix(1 0 0 1 372.9346 2767.1729)" class="st7 st5 st6">2014</text>
            <rect x="368.8" y="2917" class="st3" width="48.1" height="22.9"/>
            <text transform="matrix(1 0 0 1 372.6299 2929.6729)" class="st4 st5 st6">2015</text>
            <text transform="matrix(1 0 0 1 372.6299 2929.6729)" class="st7 st5 st6">2015</text>
            <circle class="st1" cx="393.7" cy="3086.9" r="25.7"/>
            <polygon class="st2" points="403.7,2994.7 393.7,3002.2 383.6,2994.7 383.6,3004.2 393.7,3012.2 403.7,3003.4         "/>
            <rect x="369" y="3080.3" class="st3" width="48.1" height="22.9"/>
            <text transform="matrix(1 0 0 1 372.8066 3093.0164)" class="st4 st5 st6">2016</text>
            <text transform="matrix(1 0 0 1 372.8066 3093.0164)" class="st7 st5 st6">2016</text>
            <polygon class="st2" points="403.7,3396.6 393.7,3404.1 383.6,3396.6 383.6,3406.1 393.7,3414.1 403.7,3405.3         "/>
            <polygon class="st2" points="403.7,3375.2 393.7,3382.7 383.6,3375.2 383.6,3384.7 393.7,3392.7 403.7,3384         "/>
            <polygon class="st2" points="403.7,3353.9 393.7,3361.4 383.6,3353.9 383.6,3363.4 393.7,3371.4 403.7,3362.6         "/>
            <polygon class="st2" points="403.7,3332.9 393.7,3340.4 383.6,3332.9 383.6,3342.4 393.7,3350.4 403.7,3341.6         "/>
            <path class="st8" d="M-214.6,3577.7h6.2c0.3,0,0.5,0.2,0.5,0.5v0.2c0,0.3-0.2,0.5-0.5,0.5h-6.2c-0.3,0-0.5-0.2-0.5-0.5v-0.2
                C-215.1,3577.9-214.8,3577.7-214.6,3577.7z"/>
            <path class="st8" d="M-213.3,3580.1h3.4c0.3,0,0.5,0.2,0.5,0.5v0.2c0,0.3-0.2,0.5-0.5,0.5h-3.4c-0.3,0-0.5-0.2-0.5-0.5v-0.2
                C-213.8,3580.3-213.5,3580.1-213.3,3580.1z"/>
            <rect x="-213.4" y="3582.7" class="st9" width="3.8" height="16.9"/>
            <path class="st8" d="M-214.6,3575.4h6.2c0.3,0,0.5,0.2,0.5,0.5v0.2c0,0.3-0.2,0.5-0.5,0.5h-6.2c-0.3,0-0.5-0.2-0.5-0.5v-0.2
                C-215.1,3575.7-214.8,3575.4-214.6,3575.4z"/>
            <path class="st9" d="M-204.2,3582.7l0.2,16.9h3.8v-10.8l0,0c0-0.1,0-0.2,0-0.3c0.1-0.2,0.1-0.4,0.3-0.7c0.1-0.2,0.7-1.5,2.2-1.9
                c1.3-0.4,2.6,0.1,3.4,0.8c0.5,0.5,0.8,1.3,0.9,1.7c0,0.1,0,0.1,0,0.2c0,0.1,0,0.2,0,0.2v0.2v10.5h4.2v-10.7c0-0.2,0.1-0.3,0.2-0.6
                c0.1-0.4,0.5-1.4,1.5-2.1c0.9-0.6,2.1-0.7,3.2-0.2c1.2,0.6,1.7,1.8,1.9,2.4c0.1,0.2,0.1,0.3,0.1,0.4c0,0.1,0,0.3,0,0.3v0.5v9.9h4
                v-11.7c0,0,0-0.4,0-0.5s0-0.3-0.1-0.5c0-0.1,0-0.1,0-0.2c-0.2-0.6-0.7-2.4-2.3-3.5c-1.6-1.2-3.5-0.9-4.4-0.8
                c-0.7,0.1-2,0.2-3.2,1.1c-0.7,0.5-1.2,1.2-1.5,1.6l-0.2,0.3c-0.1-0.1-0.2-0.3-0.3-0.5c-0.2-0.3-0.8-1.2-1.8-1.8
                c-1.5-0.9-3.1-0.8-3.7-0.7c-1.4,0.2-2.4,0.9-2.8,1.2c-0.6,0.5-1.1,1-1.3,1.3l-0.2,0.3v-2.6h-4.1V3582.7z"/>
            <path class="st9" d="M-169.7,3582.7v2.9l0.2-0.4c0.2-0.4,0.6-0.8,1.2-1.3c1-0.9,2-1.2,2.3-1.3c1.4-0.5,2.6-0.3,3.2-0.2
                c1.9,0.3,3.3,1.3,3.7,1.6c1.7,1.3,2.3,3,2.5,3.6c0.4,1.2,0.5,2.3,0.5,3.1c0,1.1,0.1,2.6-0.7,4.2c-0.9,2-2.3,3.1-2.7,3.3
                c-1.5,1.1-3,1.3-3.4,1.4c-1.5,0.2-2.6-0.1-3-0.2c-0.2-0.1-1.7-0.5-2.6-1.3c-0.1-0.1-0.5-0.6-1-1.1c-0.1-0.1-0.2-0.3-0.3-0.3v7.8
                h-3.8v-22L-169.7,3582.7z M-164.8,3585.7c-2.7,0-4.9,2.4-4.9,5.3s2.2,5.3,4.9,5.3s4.9-2.4,4.9-5.3S-162.1,3585.7-164.8,3585.7z"/>
            <path class="st9" d="M-152.1,3582.6v11.3c0,0.1,0,0.2,0,0.4c0,0.3,0.1,0.6,0.2,1c0.1,0.4,0.2,0.9,0.5,1.4c0.5,1,1.2,1.6,1.4,1.7
                c0.8,0.6,1.5,0.9,2,1c0.9,0.3,1.6,0.3,2.2,0.3c0.6,0,1.1,0,1.8-0.2s1.2-0.6,1.6-0.8c0.6-0.4,0.9-0.8,1-0.8
                c0.3-0.3,0.5-0.6,0.6-0.8l0.2-0.1v2.6h3.9v-16.9h-3.9v9.8c0,0.1,0,0.3,0,0.5c0,0.3-0.2,1.4-1.2,2.3c-0.9,0.8-1.9,0.9-2.2,0.9
                c-0.4,0-1.3,0.1-2.2-0.4c-0.8-0.5-1.2-1.2-1.4-1.5c-0.3-0.5-0.4-1.2-0.5-1.3c0-0.1,0-0.2-0.1-0.3v-0.7v-9.5h-3.9V3582.6z"/>
            <rect x="-131.6" y="3575.9" class="st9" width="3.8" height="23.5"/>
            <path class="st9" d="M-110.8,3584.1l-1.6,2.9c-0.2-0.1-0.3-0.2-0.5-0.3c-0.4-0.2-1-0.6-1.7-0.9c-0.4-0.1-1-0.4-1.9-0.5
                c-1.1-0.1-1.5,0-1.7,0c-0.3,0.1-0.6,0.2-0.6,0.2c-0.1,0.1-0.3,0.2-0.5,0.4s-0.3,0.4-0.4,0.6c0,0.1-0.2,0.4-0.1,0.7
                c0,0.2,0.1,0.4,0.3,0.6c0,0,0.3,0.4,0.5,0.5s0.6,0.5,2,0.8c0.4,0.1,1.2,0.3,1.6,0.5c1,0.3,1,0.3,2.1,0.8c0.7,0.3,1,0.5,1.3,0.7
                c0.2,0.1,0.8,0.7,1.3,1.6c0.8,1.7,0.2,3.3,0,3.6c-0.6,1.5-1.7,2.2-2.2,2.5c-1.1,0.7-2.2,0.8-3.1,0.9c-1.7,0.2-3.1-0.1-3.9-0.4
                c-1.5-0.4-2.5-0.9-2.8-1.1c-0.5-0.3-1-0.6-1.3-0.8l-0.3-0.2l1.8-2.6c0.1,0.1,0.2,0.2,0.4,0.3c0.3,0.2,1.1,0.8,2.6,1.2
                c0.9,0.3,1.3,0.5,2.1,0.5c0.5,0,0.8,0.1,1.7-0.1c0.4-0.1,0.9-0.2,1.1-0.4c0.1-0.1,0.5-0.3,0.6-0.8c0.1-0.4,0-0.8-0.1-0.9
                c0-0.1-0.2-0.4-0.6-0.7c-0.5-0.4-0.9-0.5-1.3-0.7c-0.7-0.3,0.1,0.1-2.1-0.7c-1.9-0.6-1.8-0.5-2.4-0.8c-0.8-0.3-1.4-0.6-2-1.3
                c-0.4-0.5-0.5-1-0.6-1.2c0-0.1-0.2-0.6-0.2-1.3c0-0.3,0-0.9,0.2-1.6c0.1-0.4,0.2-0.9,0.6-1.5c0.5-0.8,1.2-1.1,1.7-1.4
                c0.8-0.5,1.6-0.6,2.2-0.7c0.5-0.1,1.6-0.2,2.9-0.1c1,0.1,1.8,0.4,2.4,0.7c0.8,0.3,1.4,0.6,1.8,0.8L-110.8,3584.1z"/>
            <path class="st9" d="M-103.3,3592.4c0,0.2,0.1,0.6,0.2,1c0.3,0.7,0.7,1.1,1,1.5c0.3,0.3,0.7,0.7,1.3,1c0.7,0.4,1.4,0.5,1.8,0.5
                c0.8,0.1,1.3,0,1.6-0.1c0.9-0.2,1.5-0.5,1.8-0.6c0.2-0.1,0.8-0.4,1.5-1c0.1-0.1,0.2-0.2,0.3-0.3l2.2,2l-0.2,0.2
                c-0.2,0.2-0.4,0.4-0.8,0.7c-0.5,0.4-1.2,1-2.1,1.5c-1.1,0.5-2,0.7-2.7,0.7c-1.4,0.2-2.5,0-3-0.1c-0.6-0.1-1.7-0.3-2.9-1
                c-1.2-0.7-2-1.6-2.3-2c-1.1-1.4-1.5-2.8-1.6-3.4c-0.1-0.3-0.4-1.8-0.1-3.6c0.1-0.8,0.4-2.2,1.4-3.7c0.6-0.9,1.4-1.6,2-2
                c1.2-0.9,2.3-1.2,2.6-1.3c0.8-0.2,1.5-0.2,2-0.3c0.6,0,1.3-0.1,2.1,0.1c0.3,0.1,1.1,0.2,2.1,0.8c0.8,0.5,1.4,1,1.7,1.3
                c0.6,0.6,1,1.2,1.2,1.6c0.3,0.5,0.8,1.4,1.1,2.6c0.2,0.8,0.2,1.5,0.2,2.6c0,0.4,0,0.7,0,0.9c-4.2,0-8.4,0-12.7,0L-103.3,3592.4z
                 M-103.4,3589.7h8.7c0-0.1,0-0.2,0-0.3c0-0.7-0.4-1.3-0.6-1.7s-0.6-0.9-1.3-1.4c-0.8-0.6-1.6-0.7-1.8-0.8c-0.2,0-0.8-0.1-1.5,0.1
                c-0.2,0-0.8,0.2-1.6,0.7c-0.1,0.1-0.6,0.4-1.1,1c-0.2,0.3-0.6,0.9-0.8,1.6c0,0.2-0.1,0.3-0.1,0.4"/>
            <g>
                <g>
                    <path class="st10" d="M-211.4,3562.1c-3.5,0-6.3,2.7-6.3,6.1c0,3.4,2.8,6.1,6.3,6.1s6.3-2.7,6.3-6.1
                        C-205.2,3564.8-208,3562.1-211.4,3562.1z M-211.4,3572.4c-2.2,0-4-1.8-4-4.1s1.8-4.1,4-4.1s4,1.8,4,4.1
                        S-209.2,3572.4-211.4,3572.4z"/>
                    <path class="st10" d="M-219.4,3563.7c-0.4-0.3-0.9-0.7-1.6-1c-0.2-0.1-0.8-0.4-1.8-0.5c-0.3,0-1-0.1-1.8,0
                        c-0.4,0-0.9,0.1-1.6,0.4c-0.2,0.1-0.9,0.4-1.7,1.1c-0.7,0.6-1,1.2-1.2,1.5c-0.1,0.1-0.4,0.7-0.6,1.5c-0.1,0.5-0.2,1.2-0.2,2
                        c0.1,1.5,0.7,2.6,0.8,2.8c0.5,0.8,1.1,1.4,1.3,1.6c0.2,0.2,0.8,0.6,1.7,1c0.3,0.1,1,0.4,2,0.4c0.8,0,1.4-0.1,1.8-0.2
                        c0.8-0.2,1.4-0.5,1.7-0.7c0.7-0.4,1.2-0.9,1.5-1.2l0.1-0.1l-1.4-1.4l-0.1,0.1c-0.5,0.5-1,0.8-1.3,1c-0.2,0.1-0.5,0.3-1,0.4
                        c-0.3,0.1-0.6,0.1-0.8,0.1c-0.5,0-0.9,0-1-0.1c-0.4-0.1-0.7-0.2-0.8-0.3c-0.4-0.2-0.6-0.4-0.8-0.5s-0.4-0.3-0.6-0.6
                        c-0.2-0.3-0.3-0.5-0.4-0.7c-0.2-0.3-0.2-0.6-0.3-0.8c0-0.2-0.1-0.6-0.2-1.1c0-0.7,0.1-1.3,0.2-1.6c0.1-0.3,0.2-0.8,0.6-1.3
                        c0.5-0.6,1-1,1.2-1.1c0.1-0.1,0.6-0.3,1.4-0.4c0.7-0.1,1.2,0,1.4,0c0.6,0.1,1,0.4,1.3,0.5c0.4,0.3,0.8,0.5,1,0.7l0.1,0.1
                        l1.4-1.5l-0.2-0.2L-219.4,3563.7z"/>
                    <path class="st10" d="M-196.7,3569.7h0.2c0.2-0.1,0.4-0.1,0.6-0.3c0.2-0.1,0.6-0.3,1-0.7s0.6-0.8,0.7-1c0.3-0.7,0.3-1.3,0.3-1.6
                        c0-0.7-0.2-1.2-0.2-1.3c-0.3-0.7-0.7-1.2-0.9-1.4c-0.5-0.5-1-0.7-1.3-0.8s-0.9-0.3-1.6-0.3c-0.1,0-0.2,0-0.2,0h-5.5v11.9h2.1
                        v-4.1h2.6l2.9,4.1h2.5L-196.7,3569.7z M-197.9,3568.2c-0.1,0-0.1,0-0.2,0h-3.3v-3.9h3.3h0.2c0.2,0,0.6,0.1,1,0.3
                        c0.2,0.1,0.5,0.3,0.7,0.7c0.1,0.3,0.2,0.5,0.2,0.7c0,0.1,0,0.4-0.1,0.8c-0.1,0.4-0.3,0.6-0.3,0.7c-0.2,0.3-0.5,0.4-0.6,0.5
                        C-197.5,3568.2-197.8,3568.2-197.9,3568.2z"/>
                    <rect x="-191.4" y="3562.3" class="st10" width="2.1" height="11.9"/>
                    <rect x="-191.4" y="3562.3" class="st10" width="8.8" height="2"/>
                    <rect x="-191.3" y="3572.3" class="st10" width="8.8" height="2"/>
                    <rect x="-191.4" y="3567.3" class="st10" width="8" height="1.9"/>
                </g>
            </g>
            <rect x="-258.5" y="-617.2" class="st1" width="1309.4" height="411.8"/>
        </g>
    </g>
    <g id="uber_bubbles">
        <g>
            <polygon class="st11" points="345.1,2032.9 327.5,2049.9 327.5,2017.3         "/>
            <path class="st11" d="M-100.6,2083.3h417.1c6.6,0,12-5.4,12-12v-212.9c0-6.6-5.4-12-12-12h-417.1c-6.6,0-12,5.4-12,12v212.9
                C-112.6,2077.9-107.2,2083.3-100.6,2083.3z"/>
            <polygon class="st11" points="343.4,2147.8 325.8,2163.5 325.8,2133.4         "/>
            <path class="st11" d="M-102.3,2325.3h417.1c6.6,0,12-5.4,12-12v-194.7c0-6.6-5.4-12-12-12h-417.1c-6.6,0-12,5.4-12,12v194.7
                C-114.3,2319.9-108.9,2325.3-102.3,2325.3z"/>
            <polygon class="st11" points="443.1,2273.5 460.7,2289.2 460.7,2259.1         "/>
            <path class="st11" d="M888.8,2441H471.7c-6.6,0-12-5.4-12-12v-194.7c0-6.6,5.4-12,12-12h417.1c6.6,0,12,5.4,12,12V2429
                C900.8,2435.6,895.4,2441,888.8,2441z"/>
            <polygon class="st11" points="441.2,3087.4 458.8,3103.1 458.8,3073         "/>
            <path class="st11" d="M886.9,3244.4h-417c-6.6,0-12-5.4-12-12v-204.1c0-6.6,5.4-12,12-12H887c6.6,0,12,5.4,12,12v204.1
                C898.9,3239,893.5,3244.4,886.9,3244.4z"/>
            <rect x="-80.9" y="1879.7" class="st3" width="177" height="172.9"/>
            <text transform="matrix(1 0 0 1 -12.8291 1892.3564)" class="st21 st5 st6">2010</text>
            <text transform="matrix(1 0 0 1 -71.1291 1918.3564)" class="st20 st5 st6">Co-founder Garrett </text>
            <text transform="matrix(1 0 0 1 -59.3291 1944.3564)" class="st20 st5 st6">Camp designs a </text>
            <text transform="matrix(1 0 0 1 -80.1291 1970.3564)" class="st20 st5 st6">simple logo for Uber</text>
            <text transform="matrix(1 0 0 1 89.6709 1970.3564)" class="st20 st5 st6">-</text>
            <text transform="matrix(1 0 0 1 -63.5291 1996.3564)" class="st20 st5 st6">cab, an upright U </text>
            <text transform="matrix(1 0 0 1 -71.1291 2022.3564)" class="st20 st5 st6">and the same U on </text>
            <text transform="matrix(1 0 0 1 -23.7291 2048.3564)" class="st20 st5 st6">its side.</text>
            <rect x="-80.9" y="2140.3" class="st3" width="177" height="151.7"/>
            <text transform="matrix(1 0 0 1 -12.8291 2152.9958)" class="st21 st5 st6">2010</text>
            <text transform="matrix(1 0 0 1 -78.7291 2178.9958)" class="st20 st5 st6">Within a few months, </text>
            <text transform="matrix(1 0 0 1 -78.5291 2204.9958)" class="st20 st5 st6">Ubercab rebrands to </text>
            <text transform="matrix(1 0 0 1 -40.7291 2230.9958)" class="st20 st5 st6">just Uber to </text>
            <text transform="matrix(1 0 0 1 -64.5291 2256.9958)" class="st20 st5 st6">differentiate itself </text>
            <text transform="matrix(1 0 0 1 -70.8291 2282.9958)" class="st20 st5 st6">from a cab service.</text>
            <rect x="685.5" y="2255.7" class="st3" width="187.6" height="178.6"/>
            <text transform="matrix(1 0 0 1 761.512 2268.3589)" class="st21 st5 st6">2011</text>
            <text transform="matrix(1 0 0 1 690.412 2294.3589)" class="st20 st5 st6">Uber goes for a more </text>
            <text transform="matrix(1 0 0 1 698.412 2320.3589)" class="st20 st5 st6">modern &amp; luxurious </text>
            <text transform="matrix(1 0 0 1 712.012 2346.3589)" class="st20 st5 st6">look just prior to </text>
            <text transform="matrix(1 0 0 1 696.612 2372.3589)" class="st20 st5 st6">launching in Europe </text>
            <text transform="matrix(1 0 0 1 707.112 2398.3589)" class="st20 st5 st6">and going global.</text>
            <rect x="662.5" y="3045.5" class="st3" width="202.9" height="172.2"/>
            <text transform="matrix(1 0 0 1 743.6663 3058.1938)" class="st21 st5 st6">2016</text>
            <text transform="matrix(1 0 0 1 673.2663 3084.1938)" class="st20 st5 st6">Uber’s square, bit-like </text>
            <text transform="matrix(1 0 0 1 700.5663 3110.1938)" class="st20 st5 st6">logo reflects its </text>
            <text transform="matrix(1 0 0 1 664.8663 3136.1938)" class="st20 st5 st6">revamped reputation as </text>
            <text transform="matrix(1 0 0 1 677.6663 3162.1938)" class="st20 st5 st6">a major developer of </text>
            <text transform="matrix(1 0 0 1 673.7663 3188.1938)" class="st20 st5 st6">the technology of bits </text>
            <text transform="matrix(1 0 0 1 718.1663 3214.1938)" class="st20 st5 st6">and atoms.</text>

                <image style="overflow:visible;enable-background:new;" width="500" height="500" xlink:href="/static/img/infographic/logo-evolution/logos/1C6BD54A.png"  transform="matrix(0.295 0 0 0.295 130.2399 1889.3914)">
            </image>

                <image style="overflow:visible;enable-background:new;" width="332" height="332" xlink:href="/static/img/infographic/logo-evolution/logos/uber_2010 (2).jpg"  transform="matrix(0.4671 0 0 0.4671 137.643 2138.647)">
            </image>

                <image style="overflow:visible;enable-background:new;" width="1000" height="1000" xlink:href="/static/img/infographic/logo-evolution/logos/1C6BD54E.jpeg"  transform="matrix(0.1755 0 0 0.1755 493.6161 2243.2139)">
            </image>
            <g>
                <g>
                    <defs>
                        <rect id="SVGID_1_" x="484.4" y="3046" width="164.7" height="164.7"/>
                    </defs>
                    <clipPath id="SVGID_2_">
                        <use xlink:href="#SVGID_1_"  style="overflow:visible;"/>
                    </clipPath>
                    <g transform="matrix(1 0 0 1 0 -2.441406e-004)" class="st12">

                            <image style="overflow:visible;enable-background:new;" width="691" height="690" xlink:href="/static/img/infographic/logo-evolution/logos/1C6BD54B.png"  transform="matrix(0.3281 0 0 0.3281 452.0622 3016.0845)">
                        </image>
                    </g>
                </g>
            </g>
        </g>
    </g>
    <g id="uber_icon">
        <g>

                <image style="overflow:visible;enable-background:new;" width="691" height="690" xlink:href="/static/img/infographic/logo-evolution/logos/1C6BD549.png"  transform="matrix(0.4526 0 0 0.4526 720.2788 -581.9059)">
            </image>
            <rect x="801.1" y="-328.4" class="st3" width="151" height="41.5"/>
            <text transform="matrix(1 0 0 1 849.5253 -311.6995)" class="st0 st5" style="font-size:25px;">Uber</text>

                <text transform="matrix(1 0 0 1 849.5253 -311.6995)" class="st5" style="fill:none;stroke:#2B2C3D;stroke-width:0.75;stroke-miterlimit:10; font-size:25px;">Uber</text>
        </g>
    </g>
    <g id="impulse_bubbles">
        <g>
            <polygon class="st11" points="346.1,2761.2 328.5,2776.8 328.5,2746.8         "/>
            <path class="st11" d="M-99.6,2821.7h417.1c6.6,0,12-5.4,12-12V2605c0-6.6-5.4-12-12-12H-99.6c-6.6,0-12,5.4-12,12v204.7
                C-111.6,2816.3-106.2,2821.7-99.6,2821.7z"/>
            <polygon class="st11" points="345.4,3116.3 327.8,3132 327.8,3101.9         "/>
            <path class="st11" d="M-100.3,3310.4h417.1c6.6,0,12-5.4,12-12v-201.3c0-6.6-5.4-12-12-12h-417.1c-6.6,0-12,5.4-12,12v201.3
                C-112.3,3305-106.9,3310.4-100.3,3310.4z"/>
            <rect x="-58.5" y="2697.9" class="st3" width="340.8" height="99.9"/>
            <text transform="matrix(1 0 0 1 92.0021 2710.5396)" class="st21 st5 st6">2014</text>
            <text transform="matrix(1 0 0 1 -25.3979 2736.5396)" class="st20 st5 st6">Formerly known as “CORE Blog,” </text>
            <text transform="matrix(1 0 0 1 -46.2979 2762.5396)" class="st20 st5 st6">Impulse welcomes new beginnings by </text>
            <text transform="matrix(1 0 0 1 6.2021 2788.5396)" class="st20 st5 st6">making its very own logo.</text>
            <g>
                <g>
                    <defs>
                        <rect id="SVGID_3_" x="-23.2" y="2605" width="258.8" height="90.9"/>
                    </defs>
                    <clipPath id="SVGID_4_">
                        <use xlink:href="#SVGID_3_"  style="overflow:visible;"/>
                    </clipPath>
                    <g class="st13">

                            <image style="overflow:visible;enable-background:new;" width="960" height="826" xlink:href="/static/img/infographic/logo-evolution/logos/1C6BD556.png"  transform="matrix(0.2628 0 0 0.2628 -22.5594 2554.6726)">
                        </image>
                    </g>
                </g>
            </g>
            <rect x="-45.1" y="3192.3" class="st3" width="312.2" height="157.5"/>
            <text transform="matrix(1 0 0 1 90.7834 3204.9229)" class="st21 st5 st6">2015</text>
            <text transform="matrix(1 0 0 1 -41.4166 3230.9229)" class="st5 st6">Impulse gets a makeover with a logo </text>
            <text transform="matrix(1 0 0 1 -29.1166 3256.9229)" class="st5 st6">integrating “CORE” and “Impulse” </text>
            <text transform="matrix(1 0 0 1 46.9834 3282.9229)" class="st5 st6">more smoothly.</text>
            <g>
                <path class="st8" d="M32.6,3134.1h9.6c0.3,0,0.6,0.3,0.6,0.6v0.7c0,0.3-0.2,0.6-0.6,0.6h-9.6c-0.3,0-0.6-0.3-0.6-0.6v-0.7
                    C32.1,3134.4,32.3,3134.1,32.6,3134.1z"/>
                <path class="st8" d="M34.6,3137.6H40c0.3,0,0.6,0.3,0.6,0.6v0.7c0,0.3-0.2,0.6-0.6,0.6h-5.5c-0.3,0-0.6-0.3-0.6-0.6v-0.7
                    C34,3137.9,34.3,3137.6,34.6,3137.6z"/>
                <rect x="34.6" y="3141.6" class="st9" width="5.7" height="25.1"/>
                <path class="st8" d="M32.6,3130.8h9.6c0.3,0,0.6,0.3,0.6,0.6v0.7c0,0.3-0.2,0.6-0.6,0.6h-9.6c-0.3,0-0.6-0.3-0.6-0.6v-0.7
                    C32.1,3131,32.3,3130.8,32.6,3130.8z"/>
                <path class="st9" d="M48.2,3141.6l0.4,25.1h5.6v-16l0,0c0-0.1,0-0.3,0.1-0.4c0.1-0.3,0.2-0.6,0.4-1s1.1-2.2,3.2-2.8
                    c1.9-0.6,3.8,0.1,5.1,1.2c0.8,0.7,1.1,1.9,1.3,2.6c0,0.1,0,0.2,0.1,0.3c0,0.2,0,0.2,0,0.2v0.3v15.7h6.2v-15.9
                    c0-0.3,0.1-0.4,0.2-0.8c0.2-0.6,0.8-2.1,2.3-3.1c1.3-0.8,3.2-1,4.8-0.3c1.8,0.8,2.6,2.6,2.8,3.5c0.1,0.3,0.1,0.5,0.1,0.5
                    c0,0.1,0,0.5,0,0.5v0.8v14.7h6v-17.4c0,0,0-0.5,0-0.7s0-0.4-0.1-0.7c0-0.1,0-0.2-0.1-0.3c-0.3-0.9-1.1-3.5-3.4-5.2
                    c-2.4-1.7-5.2-1.4-6.6-1.2c-1.1,0.1-2.9,0.3-4.8,1.6c-1.1,0.8-1.8,1.7-2.2,2.3l-0.3,0.5c-0.1-0.2-0.2-0.5-0.4-0.8
                    c-0.3-0.4-1.2-1.7-2.7-2.7c-2.3-1.4-4.7-1.1-5.5-1c-2.1,0.3-3.6,1.4-4.1,1.8c-0.9,0.7-1.6,1.4-2,2l-0.3,0.5v-3.8L48.2,3141.6
                    L48.2,3141.6z"/>
                <path class="st9" d="M99.5,3141.6v4.3l0.3-0.5c0.4-0.5,0.9-1.2,1.7-1.9c1.5-1.3,3-1.8,3.4-2c2.1-0.7,3.9-0.4,4.8-0.3
                    c2.9,0.4,4.8,1.9,5.5,2.4c2.5,2,3.4,4.5,3.8,5.4c0.7,1.8,0.7,3.4,0.7,4.6c0,1.6,0.1,3.8-1,6.3c-1.3,3-3.4,4.6-4,4.9
                    c-2.3,1.6-4.5,2-5.1,2.1c-2.2,0.3-3.9-0.1-4.5-0.3c-0.3-0.1-2.6-0.7-3.8-2c-0.1-0.1-0.8-0.8-1.5-1.6c-0.2-0.2-0.4-0.4-0.5-0.5
                    v11.6h-5.7v-32.6L99.5,3141.6z M106.7,3146c-4,0-7.3,3.6-7.3,7.9c0,4.4,3.3,7.9,7.3,7.9s7.3-3.6,7.3-7.9
                    C113.9,3149.6,110.7,3146,106.7,3146z"/>
                <path class="st9" d="M125.6,3141.4v16.8c0,0.2,0,0.4,0,0.6c0,0.4,0.1,0.9,0.3,1.5c0.2,0.6,0.4,1.3,0.8,2.1c0.8,1.5,1.8,2.3,2,2.5
                    c1.2,1,2.3,1.3,2.9,1.5c1.3,0.4,2.4,0.4,3.3,0.4c0.9,0,1.7,0,2.7-0.4c1-0.3,1.7-0.8,2.3-1.2c0.9-0.6,1.4-1.1,1.5-1.2
                    c0.4-0.4,0.7-0.9,0.9-1.2l0.2-0.2v3.8h5.8v-25h-5.8v14.6c0,0.2,0,0.5,0,0.8c-0.1,0.4-0.3,2.1-1.7,3.4c-1.3,1.2-2.8,1.4-3.3,1.4
                    c-0.6,0.1-1.9,0.2-3.2-0.6c-1.2-0.7-1.8-1.8-2-2.2c-0.4-0.8-0.6-1.8-0.7-1.9c0-0.2-0.1-0.3-0.1-0.4v-1v-14.1L125.6,3141.4
                    L125.6,3141.4z"/>
                <rect x="156" y="3131.5" class="st9" width="5.7" height="34.8"/>
                <path class="st9" d="M186.9,3143.7l-2.4,4.3c-0.2-0.2-0.5-0.3-0.7-0.5c-0.5-0.3-1.4-0.9-2.6-1.4c-0.5-0.2-1.5-0.6-2.9-0.8
                    c-1.6-0.2-2.3,0-2.5,0.1c-0.4,0.2-0.9,0.4-0.9,0.4c-0.2,0.1-0.5,0.3-0.8,0.6s-0.5,0.6-0.6,0.8c-0.1,0.1-0.2,0.5-0.1,1
                    c0.1,0.2,0.2,0.5,0.5,0.9c0,0.1,0.4,0.5,0.8,0.7c0.3,0.1,0.9,0.7,3,1.2c0.7,0.2,1.8,0.5,2.4,0.7c1.5,0.4,1.5,0.4,3.1,1.1
                    c1,0.5,1.5,0.7,1.9,1c0.2,0.2,1.2,1,1.9,2.4c1.1,2.5,0.3,4.9,0.1,5.4c-0.9,2.2-2.6,3.3-3.2,3.7c-1.7,1-3.2,1.2-4.6,1.4
                    c-2.6,0.3-4.6-0.2-5.8-0.5c-2.2-0.5-3.7-1.3-4.1-1.6c-0.8-0.4-1.4-0.9-1.9-1.2l-0.4-0.4l2.7-3.8c0.1,0.1,0.3,0.2,0.5,0.4
                    c0.4,0.3,1.6,1.1,3.8,1.9c1.3,0.4,2,0.7,3.1,0.7c0.8,0.1,1.1,0.1,2.5-0.1c0.6-0.1,1.3-0.3,1.7-0.6c0.2-0.1,0.7-0.5,0.9-1.2
                    s0-1.2-0.1-1.4c0-0.1-0.2-0.6-0.8-1.1c-0.7-0.6-1.3-0.8-1.9-1c-1.1-0.4,0.1,0.1-3.2-1c-2.9-0.9-2.7-0.8-3.6-1.1
                    c-1.2-0.5-2.1-1-2.9-2c-0.5-0.7-0.8-1.5-0.9-1.8c-0.1-0.2-0.3-0.9-0.4-1.9c0-0.5,0-1.4,0.2-2.4c0.1-0.5,0.3-1.4,0.9-2.2
                    c0.8-1.1,1.8-1.7,2.5-2.1c1.2-0.7,2.3-0.9,3.3-1.1c0.7-0.1,2.3-0.4,4.4-0.1c1.5,0.2,2.6,0.6,3.6,1c1.1,0.4,2,0.8,2.7,1.2
                    L186.9,3143.7z"/>
                <path class="st9" d="M198,3156c0,0.4,0.1,0.9,0.3,1.5c0.4,1,1,1.7,1.5,2.2c0.4,0.5,1,1,2,1.5c1.1,0.6,2.1,0.7,2.7,0.7
                    c1.1,0.1,2,0,2.4-0.1c1.3-0.2,2.3-0.7,2.6-0.9c0.3-0.1,1.2-0.6,2.2-1.6c0.2-0.2,0.3-0.3,0.4-0.4l3.3,3l-0.2,0.3
                    c-0.3,0.3-0.6,0.6-1.1,1c-0.8,0.7-1.8,1.5-3.1,2.2c-1.6,0.8-3,1-4,1.1c-2.1,0.3-3.8,0-4.4-0.1c-0.9-0.2-2.5-0.5-4.3-1.5
                    c-1.8-1.1-3-2.3-3.4-2.9c-1.7-2.1-2.2-4.2-2.4-5.1c-0.1-0.5-0.6-2.6-0.1-5.4c0.2-1.1,0.6-3.3,2.1-5.5c1-1.4,2.1-2.3,2.9-3
                    c1.8-1.3,3.5-1.8,3.9-1.9c1.2-0.3,2.2-0.4,3-0.4c0.9,0,1.9-0.1,3.1,0.2c0.4,0.1,1.6,0.4,3.1,1.1c1.2,0.7,2.1,1.4,2.6,1.9
                    c0.9,0.9,1.4,1.8,1.8,2.3c0.4,0.7,1.2,2,1.6,3.9c0.3,1.2,0.3,2.2,0.3,3.9c0,0.6,0,1,0,1.4c-6.3,0-12.5,0-18.8,0L198,3156z
                     M197.9,3151.9h13c0-0.1,0-0.2,0-0.4c-0.1-1.1-0.5-1.9-0.9-2.5c-0.3-0.5-0.9-1.4-1.9-2.1c-1.2-0.9-2.4-1.1-2.7-1.1
                    s-1.1-0.1-2.2,0.1c-0.3,0.1-1.3,0.3-2.3,1c-0.2,0.1-0.9,0.6-1.6,1.5c-0.4,0.5-0.9,1.3-1.2,2.4c-0.1,0.3-0.1,0.5-0.1,0.6"/>
                <g>
                    <path class="st14" d="M37.5,3111c-5.1,0-9.3,4.1-9.3,9.1s4.2,9.1,9.3,9.1s9.3-4.1,9.3-9.1S42.6,3111,37.5,3111z M37.5,3126.2
                        c-3.3,0-5.9-2.7-5.9-6.1s2.7-6.1,5.9-6.1c3.3,0,5.9,2.7,5.9,6.1S40.8,3126.2,37.5,3126.2z"/>
                    <path class="st14" d="M25.7,3113.3c-0.5-0.5-1.3-1.1-2.4-1.5c-0.3-0.1-1.2-0.5-2.6-0.7c-0.4-0.1-1.4-0.2-2.7,0
                        c-0.5,0.1-1.4,0.2-2.4,0.6c-0.4,0.1-1.4,0.6-2.5,1.6c-1,0.9-1.5,1.8-1.8,2.2c-0.1,0.2-0.6,1.1-0.9,2.3c-0.2,0.7-0.4,1.7-0.3,2.9
                        c0.1,2.3,1,3.9,1.2,4.2c0.7,1.3,1.6,2,1.9,2.3c0.3,0.3,1.2,1,2.5,1.5c0.4,0.2,1.5,0.6,3,0.6c1.1,0.1,2.1-0.1,2.7-0.3
                        c1.2-0.3,2.1-0.8,2.5-1c1-0.6,1.8-1.3,2.2-1.8l0.1-0.1l-2-2.1c0,0-0.1,0.1-0.2,0.2c-0.7,0.8-1.5,1.2-2,1.4
                        c-0.3,0.2-0.8,0.4-1.5,0.6c-0.5,0.1-0.9,0.2-1.1,0.2c-0.7,0-1.3-0.1-1.5-0.1c-0.6-0.1-1-0.3-1.2-0.4c-0.6-0.3-0.9-0.5-1.2-0.8
                        c-0.3-0.2-0.6-0.5-0.9-0.9c-0.3-0.4-0.5-0.8-0.6-1c-0.2-0.5-0.4-0.9-0.4-1.1c-0.1-0.3-0.2-0.8-0.3-1.6c0-1.1,0.2-1.9,0.3-2.3
                        c0.1-0.4,0.4-1.2,0.9-1.9c0.7-0.9,1.5-1.4,1.8-1.6c0.2-0.1,0.9-0.5,2-0.6c1-0.1,1.8,0,2.1,0.1c0.9,0.2,1.5,0.5,1.9,0.8
                        c0.6,0.4,1.1,0.8,1.4,1.1l0.2,0.2l2-2.3l-0.2-0.2V3113.3z"/>
                    <path class="st14" d="M59.4,3122.3h0.2c0.2-0.1,0.6-0.2,0.9-0.4c0.3-0.2,0.9-0.5,1.5-1c0.6-0.6,0.9-1.2,1.1-1.5
                        c0.5-1,0.5-1.9,0.5-2.3c0-1-0.2-1.8-0.3-2c-0.4-1.1-1.1-1.8-1.3-2c-0.7-0.7-1.5-1-1.9-1.2c-0.5-0.2-1.3-0.5-2.4-0.5
                        c-0.1,0-0.2,0-0.3,0h-8.1v17.6h3.1v-6.1h3.8l4.3,6.1h3.7L59.4,3122.3z M57.6,3120c-0.1,0-0.2,0-0.3,0h-5v-5.8h4.9h0.3
                        c0.3,0,0.9,0.1,1.4,0.5c0.3,0.2,0.8,0.5,1.1,1.1c0.2,0.4,0.3,0.8,0.3,1s0.1,0.6-0.1,1.1c-0.1,0.5-0.4,0.9-0.5,1
                        c-0.3,0.4-0.7,0.6-1,0.7C58.2,3120,57.7,3120,57.6,3120z"/>
                    <rect x="67.2" y="3111.3" class="st14" width="3.2" height="17.6"/>
                    <rect x="67.2" y="3111.3" class="st14" width="13.1" height="2.9"/>
                    <rect x="67.4" y="3126" class="st14" width="13.1" height="2.9"/>
                    <rect x="67.3" y="3118.7" class="st14" width="11.9" height="2.8"/>
                </g>
            </g>
        </g>
    </g>
    <g id="impulse_icon">
        <g>
            <path class="st11" d="M457.7-348.9H329.3c-6.2,0-11.3-5.1-11.3-11.3v-128.4c0-6.2,5.1-11.3,11.3-11.3h128.4
                c6.2,0,11.3,5.1,11.3,11.3v128.4C469-354,463.9-348.9,457.7-348.9z"/>
            <g>
                <path class="st8" d="M342.8-424.1h5.8c0.3,0,0.6,0.2,0.6,0.6v0.1c0,0.3-0.2,0.6-0.6,0.6h-5.8c-0.3,0-0.6-0.2-0.6-0.6v-0.1
                    C342.2-423.8,342.5-424.1,342.8-424.1z"/>
                <path class="st8" d="M344.1-421.8h3.2c0.3,0,0.6,0.2,0.6,0.6v0.1c0,0.3-0.2,0.6-0.6,0.6h-3.2c-0.3,0-0.6-0.2-0.6-0.6v-0.1
                    C343.5-421.5,343.7-421.8,344.1-421.8z"/>
                <rect x="343.9" y="-419.2" class="st9" width="3.7" height="16.3"/>
                <path class="st8" d="M342.8-426.2h5.8c0.3,0,0.6,0.2,0.6,0.6v0.1c0,0.3-0.2,0.6-0.6,0.6h-5.8c-0.3,0-0.6-0.2-0.6-0.6v-0.1
                    C342.2-426,342.5-426.2,342.8-426.2z"/>
                <path class="st9" d="M352.7-419.2l0.2,16.3h3.6v-10.4l0,0c0,0,0-0.2,0-0.3c0.1-0.2,0.1-0.4,0.2-0.6s0.7-1.4,2.1-1.8
                    c1.2-0.4,2.5,0,3.3,0.8c0.5,0.5,0.7,1.2,0.9,1.7c0,0.1,0,0.1,0,0.2s0,0.1,0,0.1v0.2v10.2h4v-10.3c0-0.2,0.1-0.3,0.2-0.5
                    c0.1-0.4,0.5-1.4,1.5-2c0.9-0.5,2.1-0.6,3.1-0.2c1.2,0.5,1.7,1.7,1.8,2.3c0.1,0.2,0.1,0.3,0.1,0.3c0,0.1,0,0.3,0,0.3v0.5v9.6h3.9
                    v-11.3c0,0,0-0.4,0-0.5s0-0.3-0.1-0.5c0-0.1,0-0.1,0-0.2c-0.2-0.6-0.7-2.3-2.2-3.4c-1.6-1.1-3.4-0.9-4.3-0.8
                    c-0.7,0.1-1.9,0.2-3.1,1.1c-0.7,0.5-1.2,1.1-1.4,1.5l-0.2,0.3c-0.1-0.1-0.2-0.3-0.3-0.5c-0.2-0.3-0.8-1.1-1.8-1.7
                    c-1.5-0.9-3-0.7-3.6-0.7c-1.4,0.2-2.3,0.9-2.7,1.2c-0.6,0.5-1,0.9-1.3,1.3l-0.2,0.3v-2.5H352.7z"/>
                <path class="st9" d="M386-419.2v2.8l0.2-0.3c0.2-0.3,0.6-0.8,1.1-1.2c1-0.9,2-1.2,2.2-1.3c1.4-0.4,2.5-0.3,3.1-0.2
                    c1.9,0.3,3.1,1.2,3.6,1.6c1.6,1.3,2.2,2.9,2.4,3.5c0.4,1.2,0.5,2.2,0.5,3c0,1.1,0.1,2.5-0.7,4.1c-0.9,1.9-2.2,3-2.6,3.2
                    c-1.5,1.1-2.9,1.3-3.3,1.4c-1.4,0.2-2.5-0.1-2.9-0.2c-0.2-0.1-1.7-0.5-2.5-1.3c-0.1-0.1-0.5-0.5-1-1c-0.1-0.1-0.2-0.3-0.3-0.3
                    v7.6h-3.7V-419L386-419.2z M390.6-416.3c-2.6,0-4.7,2.3-4.7,5.1s2.1,5.1,4.7,5.1s4.7-2.3,4.7-5.1S393.2-416.3,390.6-416.3z"/>
                <path class="st9" d="M402.9-419.3v10.9c0,0.1,0,0.2,0,0.4c0,0.3,0.1,0.6,0.2,1s0.2,0.8,0.5,1.3c0.5,1,1.2,1.5,1.3,1.6
                    c0.8,0.6,1.5,0.9,1.9,1c0.9,0.3,1.6,0.3,2.1,0.3c0.6,0,1.1,0,1.8-0.2c0.7-0.2,1.1-0.5,1.5-0.8c0.6-0.4,0.9-0.7,1-0.8
                    c0.3-0.3,0.5-0.6,0.6-0.8l0.1-0.1v2.5h3.8v-16.2h-3.8v9.5c0,0.1,0,0.3,0,0.5c0,0.3-0.2,1.4-1.1,2.2c-0.8,0.8-1.8,0.9-2.1,0.9
                    c-0.4,0-1.2,0.1-2.1-0.4c-0.8-0.5-1.2-1.2-1.3-1.4c-0.3-0.5-0.4-1.2-0.4-1.2c0-0.1,0-0.2-0.1-0.3v-0.6v-9.2L402.9-419.3
                    L402.9-419.3z"/>
                <rect x="422.7" y="-425.8" class="st9" width="3.7" height="22.6"/>
                <path class="st9" d="M442.7-417.9l-1.5,2.8c-0.1-0.1-0.3-0.2-0.5-0.3c-0.3-0.2-0.9-0.6-1.7-0.9c-0.3-0.1-1-0.4-1.9-0.5
                    c-1-0.1-1.5,0-1.6,0c-0.3,0.1-0.6,0.2-0.6,0.2c-0.1,0.1-0.3,0.2-0.5,0.4c-0.2,0.2-0.3,0.4-0.4,0.5c0,0.1-0.2,0.3-0.1,0.6
                    c0,0.2,0.1,0.3,0.3,0.6c0,0,0.3,0.4,0.5,0.5s0.6,0.4,1.9,0.8c0.4,0.1,1.1,0.3,1.6,0.4c1,0.3,0.9,0.2,2,0.7c0.7,0.3,1,0.5,1.2,0.6
                    c0.1,0.1,0.8,0.6,1.2,1.6c0.7,1.6,0.2,3.2,0,3.5c-0.6,1.4-1.7,2.1-2.1,2.4c-1.1,0.7-2.1,0.8-3,0.9c-1.7,0.2-3-0.1-3.8-0.3
                    c-1.4-0.4-2.4-0.9-2.7-1c-0.5-0.3-0.9-0.6-1.2-0.8l-0.3-0.2l1.7-2.5c0.1,0.1,0.2,0.2,0.3,0.3c0.2,0.2,1.1,0.7,2.5,1.2
                    c0.8,0.3,1.3,0.4,2,0.5c0.5,0,0.7,0.1,1.6-0.1c0.4-0.1,0.8-0.2,1.1-0.4c0.1-0.1,0.4-0.3,0.6-0.8c0.1-0.4,0-0.8-0.1-0.9
                    c0-0.1-0.2-0.4-0.5-0.7c-0.4-0.4-0.9-0.5-1.2-0.7c-0.7-0.3,0.1,0.1-2.1-0.6c-1.9-0.6-1.8-0.5-2.3-0.7c-0.8-0.3-1.4-0.6-1.9-1.3
                    c-0.3-0.5-0.5-0.9-0.6-1.2c0-0.1-0.2-0.6-0.2-1.3c0-0.3,0-0.9,0.1-1.5c0.1-0.4,0.2-0.9,0.6-1.5c0.5-0.7,1.1-1.1,1.6-1.3
                    c0.8-0.4,1.5-0.6,2.1-0.7c0.5-0.1,1.5-0.2,2.8-0.1c1,0.1,1.7,0.4,2.3,0.6c0.7,0.3,1.3,0.5,1.7,0.8L442.7-417.9z"/>
                <path class="st9" d="M449.9-409.9c0,0.2,0.1,0.6,0.2,1c0.3,0.7,0.7,1.1,1,1.4s0.7,0.7,1.3,1c0.7,0.4,1.4,0.4,1.8,0.5
                    c0.7,0.1,1.3,0,1.6-0.1c0.8-0.1,1.5-0.4,1.7-0.6c0.2-0.1,0.8-0.4,1.4-1c0.1-0.1,0.2-0.2,0.3-0.3l2.1,2l-0.2,0.2
                    c-0.2,0.2-0.4,0.4-0.7,0.7c-0.5,0.4-1.2,1-2,1.4c-1,0.5-1.9,0.6-2.6,0.7c-1.4,0.2-2.4,0-2.9-0.1c-0.6-0.1-1.6-0.3-2.8-1
                    c-1.2-0.7-1.9-1.5-2.2-1.9c-1.1-1.4-1.4-2.7-1.6-3.3c-0.1-0.3-0.4-1.7-0.1-3.5c0.1-0.7,0.4-2.1,1.4-3.6c0.6-0.9,1.3-1.5,1.9-1.9
                    c1.2-0.8,2.3-1.2,2.5-1.2c0.8-0.2,1.4-0.2,1.9-0.3c0.6,0,1.2-0.1,2,0.1c0.2,0,1.1,0.2,2,0.7c0.8,0.4,1.3,0.9,1.7,1.3
                    c0.6,0.6,0.9,1.2,1.2,1.5c0.3,0.4,0.8,1.3,1,2.5c0.2,0.8,0.2,1.4,0.2,2.5c0,0.4,0,0.7,0,0.9c-4.1,0-8.1,0-12.2,0L449.9-409.9z
                     M449.9-412.5h8.4c0-0.1,0-0.2,0-0.3c0-0.7-0.3-1.2-0.6-1.6c-0.2-0.3-0.6-0.9-1.2-1.4c-0.8-0.6-1.6-0.7-1.8-0.7
                    c-0.2,0-0.7-0.1-1.4,0.1c-0.2,0-0.8,0.2-1.5,0.7c-0.1,0.1-0.6,0.4-1,1c-0.2,0.3-0.6,0.8-0.8,1.6c0,0.2-0.1,0.3-0.1,0.4"/>
                <g>
                    <path class="st14" d="M345.7-439.1c-3.3,0-6,2.6-6,5.9s2.7,5.9,6,5.9s6-2.6,6-5.9S349.1-439.1,345.7-439.1z M345.7-429.2
                        c-2.1,0-3.9-1.8-3.9-4s1.7-4,3.9-4s3.9,1.8,3.9,4S347.9-429.2,345.7-429.2z"/>
                    <path class="st14" d="M338.1-437.6c-0.4-0.3-0.9-0.7-1.5-1c-0.2-0.1-0.8-0.3-1.7-0.5c-0.3,0-0.9-0.1-1.7,0
                        c-0.3,0-0.9,0.1-1.5,0.4c-0.2,0.1-0.9,0.4-1.6,1c-0.6,0.6-1,1.2-1.1,1.4c-0.1,0.1-0.4,0.7-0.6,1.5c-0.1,0.5-0.2,1.1-0.2,1.9
                        c0.1,1.5,0.7,2.5,0.8,2.7c0.5,0.8,1,1.3,1.3,1.5c0.2,0.2,0.8,0.6,1.6,1c0.3,0.1,1,0.4,1.9,0.4c0.7,0,1.3-0.1,1.8-0.2
                        c0.8-0.2,1.3-0.5,1.6-0.6c0.7-0.4,1.1-0.8,1.4-1.2l0.1-0.1l-1.3-1.3l-0.1,0.1c-0.5,0.5-0.9,0.8-1.3,0.9
                        c-0.2,0.1-0.5,0.3-0.9,0.4c-0.3,0.1-0.6,0.1-0.7,0.1c-0.5,0-0.8,0-0.9-0.1c-0.4-0.1-0.7-0.2-0.8-0.2c-0.4-0.2-0.6-0.4-0.8-0.5
                        c-0.2-0.1-0.4-0.3-0.6-0.6c-0.2-0.3-0.3-0.5-0.4-0.7c-0.2-0.3-0.2-0.6-0.3-0.7c0-0.2-0.1-0.5-0.2-1c0-0.7,0.1-1.3,0.2-1.5
                        c0.1-0.3,0.2-0.8,0.6-1.3c0.5-0.6,1-0.9,1.2-1c0.1-0.1,0.6-0.3,1.3-0.4c0.7-0.1,1.2,0,1.3,0c0.6,0.1,1,0.3,1.2,0.5
                        c0.4,0.2,0.7,0.5,0.9,0.7l0.1,0.1l1.3-1.5l-0.1-0.2L338.1-437.6z"/>
                    <path class="st14" d="M359.9-431.7h0.2c0.2-0.1,0.4-0.1,0.6-0.2s0.6-0.3,1-0.7c0.4-0.4,0.6-0.8,0.7-1c0.3-0.7,0.3-1.2,0.3-1.5
                        c0-0.7-0.2-1.2-0.2-1.3c-0.3-0.7-0.7-1.2-0.8-1.3c-0.5-0.5-1-0.7-1.3-0.8c-0.3-0.1-0.9-0.3-1.6-0.3c-0.1,0-0.2,0-0.2,0h-5.3
                        v11.5h2v-4h2.5l2.8,4h2.4L359.9-431.7z M358.8-433.2c-0.1,0-0.1,0-0.2,0h-3.2v-3.7h3.2h0.2c0.2,0,0.6,0.1,0.9,0.3
                        c0.2,0.1,0.5,0.3,0.7,0.7c0.1,0.3,0.2,0.5,0.2,0.7c0,0.1,0,0.4-0.1,0.7c-0.1,0.3-0.3,0.6-0.3,0.7c-0.2,0.3-0.5,0.4-0.6,0.5
                        C359.2-433.2,358.9-433.2,358.8-433.2z"/>
                    <rect x="365" y="-438.9" class="st14" width="2" height="11.5"/>
                    <rect x="365" y="-438.9" class="st14" width="8.5" height="1.9"/>
                    <rect x="365.2" y="-429.3" class="st14" width="8.5" height="1.9"/>
                    <rect x="365.1" y="-434.1" class="st14" width="7.7" height="1.8"/>
                </g>
            </g>
            <rect x="313" y="-325.9" class="st3" width="161" height="41.5"/>
            <text transform="matrix(1 0 0 1 314.7176 -309.2107)" class="st0 st5" style="font-size:25px;">CORE Impulse</text>

                <text transform="matrix(1 0 0 1 314.7176 -309.2107)" class="st5" style="fill:none;stroke:#2B2C3D;stroke-width:0.75;stroke-miterlimit:10; font-size:25px;">CORE Impulse</text>
        </g>
    </g>
    <g id="twitter_bubbles">
        <g>
            <polygon class="st11" points="346.1,1461.6 328.5,1477.3 328.5,1447.2         "/>
            <path class="st11" d="M-100.6,1576.7h417.1c6.6,0,12-5.4,12-12V1370c0-6.6-5.4-12-12-12h-417.1c-6.6,0-12,5.4-12,12v194.7
                C-112.6,1571.3-107.2,1576.7-100.6,1576.7z"/>
            <g>
                <g>
                    <defs>
                        <rect id="SVGID_5_" x="126.1" y="1401.6" width="149.9" height="131.5"/>
                    </defs>
                    <clipPath id="SVGID_6_">
                        <use xlink:href="#SVGID_5_"  style="overflow:visible;"/>
                    </clipPath>
                    <g class="st15">

                            <image style="overflow:visible;enable-background:new;" width="264" height="263" xlink:href="/static/img/infographic/logo-evolution/logos/1C6BD559.png"  transform="matrix(0.5909 0 0 0.5909 126.0674 1391.7898)">
                        </image>
                    </g>
                </g>
            </g>
            <polygon class="st11" points="445.8,1919.7 463.4,1935.4 463.4,1905.4         "/>
            <path class="st11" d="M891.5,1955.7H474.4c-6.6,0-12-5.4-12-12V1749c0-6.6,5.4-12,12-12h417.1c6.6,0,12,5.4,12,12v194.7
                C903.5,1950.3,898.1,1955.7,891.5,1955.7z"/>

                <image style="overflow:visible;enable-background:new;" width="500" height="344" xlink:href="/static/img/infographic/logo-evolution/logos/twitter_2009.jpg"  transform="matrix(0.2956 0 0 0.2956 508.4432 1795.5563)">
            </image>
            <polygon class="st11" points="443.1,2109.6 460.7,2125.3 460.7,2095.3         "/>
            <path class="st11" d="M888.8,2197.6H471.7c-6.6,0-12-5.4-12-12V1991c0-6.6,5.4-12,12-12h417.1c6.6,0,12,5.4,12,12v194.7
                C900.8,2192.2,895.4,2197.6,888.8,2197.6z"/>
            <g>
                <g>
                    <defs>
                        <rect id="SVGID_7_" x="507.1" y="2027.3" width="150.5" height="117.1"/>
                    </defs>
                    <clipPath id="SVGID_8_">
                        <use xlink:href="#SVGID_7_"  style="overflow:visible;"/>
                    </clipPath>
                    <g class="st16">

                            <image style="overflow:visible;enable-background:new;" width="500" height="278" xlink:href="/static/img/infographic/logo-evolution/logos/1C6BD55A.jpeg"  transform="matrix(0.5373 0 0 0.5373 507.0999 2018.9304)">
                        </image>
                    </g>
                </g>
            </g>
            <polygon class="st11" points="346.1,2437.1 328.5,2452.8 328.5,2422.8         "/>
            <path class="st11" d="M-99.6,2567.7h417.1c6.6,0,12-5.4,12-12V2361c0-6.6-5.4-12-12-12H-99.6c-6.6,0-12,5.4-12,12v194.7
                C-111.6,2562.3-106.2,2567.7-99.6,2567.7z"/>
            <rect x="-68.1" y="1398.5" class="st3" width="177" height="157.5"/>
            <text transform="matrix(1 0 0 1 -2.4085 1411.197)" class="st21 st5 st6">2006</text>
            <text transform="matrix(1 0 0 1 -61.5085 1437.197)" class="st20 st5 st6">“Larry the Bird” was </text>
            <text transform="matrix(1 0 0 1 -67.6085 1463.197)" class="st20 st5 st6">originally made as an </text>
            <text transform="matrix(1 0 0 1 -60.9085 1489.197)" class="st20 st5 st6">iStock photo, which </text>
            <text transform="matrix(1 0 0 1 -54.6085 1515.197)" class="st20 st5 st6">Twitter purchased </text>
            <text transform="matrix(1 0 0 1 -23.8085 1541.197)" class="st20 st5 st6">for just $6.</text>
            <rect x="681.1" y="1773.7" class="st3" width="177" height="145.4"/>
            <text transform="matrix(1 0 0 1 746.7568 1786.3519)" class="st21 st5 st6">2009</text>
            <text transform="matrix(1 0 0 1 694.6568 1812.3519)" class="st20 st5 st6">Company founder </text>
            <text transform="matrix(1 0 0 1 705.0568 1838.3519)" class="st20 st5 st6">Biz Stone helps </text>
            <text transform="matrix(1 0 0 1 688.7568 1864.3519)" class="st20 st5 st6">design a new Larry, </text>
            <text transform="matrix(1 0 0 1 700.1568 1890.3519)" class="st20 st5 st6">the first in-house </text>
            <text transform="matrix(1 0 0 1 704.1568 1916.3519)" class="st20 st5 st6">logo for Twitter.</text>
            <rect x="690.9" y="2027.5" class="st3" width="177" height="123.1"/>
            <text transform="matrix(1 0 0 1 758.9183 2040.1819)" class="st21 st5 st6">2010</text>
            <text transform="matrix(1 0 0 1 721.1183 2066.1819)" class="st20 st5 st6">Twitter’s Larry </text>
            <text transform="matrix(1 0 0 1 723.3183 2092.1819)" class="st20 st5 st6">flattens into a </text>
            <text transform="matrix(1 0 0 1 694.7183 2118.1819)" class="st20 st5 st6">silhouette, losing his </text>
            <text transform="matrix(1 0 0 1 697.1183 2144.1819)" class="st20 st5 st6">cartoonish features.</text>
            <rect x="-80.9" y="2383.2" class="st3" width="177" height="157.5"/>
            <text transform="matrix(1 0 0 1 -12.6011 2395.8596)" class="st21 st5 st6">2012</text>
            <text transform="matrix(1 0 0 1 -59.5011 2421.8596)" class="st20 st5 st6">The new Twitter </text>
            <text transform="matrix(1 0 0 1 -79.4011 2447.8596)" class="st20 st5 st6">bird’s beak points up </text>
            <text transform="matrix(1 0 0 1 -44.8011 2473.8596)" class="st20 st5 st6">to symbolize </text>
            <text transform="matrix(1 0 0 1 -71.8011 2499.8596)" class="st20 st5 st6">freedom, hope and </text>
            <text transform="matrix(1 0 0 1 -71.4011 2525.8596)" class="st20 st5 st6">limitless possibility.</text>

                <image style="overflow:visible;enable-background:new;" width="1139" height="926" xlink:href="/static/img/infographic/logo-evolution/logos/1B95D40D.png"  transform="matrix(0.1261 0 0 0.1261 140.3923 2398.5713)">
            </image>
        </g>
    </g>
    <g id="twitter_icon">
        <g>

                <image style="overflow:visible;enable-background:new;" width="300" height="300" xlink:href="/static/img/infographic/logo-evolution/logos/1B95D403.png"  transform="matrix(0.5101 0 0 0.5101 557.9817 -503.064)">
            </image>
            <rect x="559" y="-325.9" class="st3" width="151" height="41.5"/>
            <text transform="matrix(1 0 0 1 596.8749 -309.2107)" class="st0 st5" style="font-size:25px;">Twitter</text>

                <text transform="matrix(1 0 0 1 596.8749 -309.2107)" class="st5" style="fill:none;stroke:#2B2C3D;stroke-width:0.75;stroke-miterlimit:10; font-size:25px;">Twitter</text>
        </g>
    </g>
    <g id="facebook_bubbles">
        <g>
            <polygon class="st11" points="344.8,992.3 327.2,1008.9 327.2,977.1         "/>
            <path class="st11" d="M-101.9,1114.1h417.1c6.6,0,12-5.4,12-12V894.8c0-6.6-5.4-12-12-12h-417.1c-6.6,0-12,5.4-12,12v207.3
                C-113.9,1108.7-108.5,1114.1-101.9,1114.1z"/>

                <image style="overflow:visible;enable-background:new;" width="272" height="44" xlink:href="/static/img/infographic/logo-evolution/logos/1B95D405.jpeg"  transform="matrix(1.1556 0 0 1.1556 -51.5402 920.501)">
            </image>
            <polygon class="st11" points="441.2,1317.3 458.8,1333.7 458.8,1302.2         "/>
            <path class="st11" d="M887.9,1438h-417c-6.6,0-12-5.4-12-12v-205.4c0-6.6,5.4-12,12-12H888c6.6,0,12,5.4,12,12V1426
                C899.9,1432.6,894.5,1438,887.9,1438z"/>
            <g>
                <g>
                    <defs>
                        <rect id="SVGID_9_" x="534.8" y="1228.1" width="308.2" height="79.2"/>
                    </defs>
                    <clipPath id="SVGID_10_">
                        <use xlink:href="#SVGID_9_"  style="overflow:visible;"/>
                    </clipPath>
                    <g transform="matrix(1 0 0 1 0 0)" class="st17">

                            <image style="overflow:visible;enable-background:new;" width="354" height="330" xlink:href="/static/img/infographic/logo-evolution/logos/1B95D407.png"  transform="matrix(0.8706 0 0 0.8706 534.7782 1228.0699)">
                        </image>
                    </g>
                </g>
            </g>
            <polygon class="st11" points="345.4,2922.4 327.8,2938.1 327.8,2908         "/>
            <path class="st11" d="M-100.3,3062.9h417.1c6.6,0,12-5.4,12-12v-194.7c0-6.6-5.4-12-12-12h-417.1c-6.6,0-12,5.4-12,12v194.7
                C-112.3,3057.5-106.9,3062.9-100.3,3062.9z"/>
            <g>
                <g>
                    <defs>
                        <rect id="SVGID_11_" x="-45.1" y="2870.8" width="302.6" height="75.3"/>
                    </defs>
                    <clipPath id="SVGID_12_">
                        <use xlink:href="#SVGID_11_"  style="overflow:visible;"/>
                    </clipPath>
                    <g transform="matrix(1 0 0 1 0 0)" class="st18">

                            <image style="overflow:visible;enable-background:new;" width="354" height="330" xlink:href="/static/img/infographic/logo-evolution/logos/1B95D405.png"  transform="matrix(0.8757 0 0 0.8757 -45.0758 2708.9954)">
                        </image>
                    </g>
                </g>
            </g>
            <rect x="-70.6" y="991.9" class="st3" width="358.9" height="94.2"/>
            <text transform="matrix(1 0 0 1 86.4095 1004.5236)" class="st21 st5 st6">2003</text>
            <text transform="matrix(1 0 0 1 -46.0905 1030.5237)" class="st20 st5 st6">thefacebook’s original blue color was </text>
            <text transform="matrix(1 0 0 1 -49.7905 1056.5237)" class="st20 st5 st6">selected by Zuck himself based on his </text>
            <text transform="matrix(1 0 0 1 43.5095 1082.5237)" class="st20 st5 st6">color blindness.</text>
            <rect x="524.3" y="1322.4" class="st3" width="319.9" height="92.2"/>
            <text transform="matrix(1 0 0 1 661.3786 1335.0413)" class="st21 st5 st6">2005</text>
            <text transform="matrix(1 0 0 1 527.7786 1361.0413)" class="st20 st5 st6">Facebook drops the “the” just prior to </text>
            <text transform="matrix(1 0 0 1 556.5786 1387.0413)" class="st20 st5 st6">expanding to high schools and </text>
            <text transform="matrix(1 0 0 1 605.4786 1413.0413)" class="st20 st5 st6">spreading globally. </text>
            <rect x="-79" y="2948.4" class="st3" width="375.9" height="98.8"/>
            <text transform="matrix(1 0 0 1 88.7074 2961.1147)" class="st21 st5 st6">2015</text>
            <text transform="matrix(1 0 0 1 -69.7926 2987.1147)" class="st5 st6">Facebook’s logo adopts a custom typeface </text>
            <text transform="matrix(1 0 0 1 -51.3926 3013.1147)" class="st5 st6">for a more friendly look targeted at the </text>
            <text transform="matrix(1 0 0 1 19.9074 3039.1147)" class="st5 st6">millennial generation.</text>
        </g>
    </g>
    <g id="facebook_icon">
        <g>

                <image style="overflow:visible;enable-background:new;" width="960" height="960" xlink:href="/static/img/infographic/logo-evolution/logos/1B95D41C.png"  transform="matrix(0.1573 0 0 0.1573 77.2143 -499.9196)">
            </image>
            <rect x="77.2" y="-325.9" class="st3" width="151" height="41.5"/>
            <text transform="matrix(1 0 0 1 98.0947 -309.2107)" class="st0 st5" style="font-size:25px;">Facebook</text>

                <text transform="matrix(1 0 0 1 98.0947 -309.2107)" class="st5" style="fill:none;stroke:#2B2C3D;stroke-width:0.75;stroke-miterlimit:10; font-size:25px;">Facebook</text>
        </g>
    </g>
    <g id="google_bubbles">
        <g>
            <polygon class="st11" points="441.2,2789.1 458.8,2806 458.8,2773.7         "/>
            <path class="st11" d="M886.9,2991.1h-417c-6.6,0-12-5.4-12-12v-211.5c0-6.6,5.4-12,12-12H887c6.6,0,12,5.4,12,12v211.5
                C898.9,2985.7,893.5,2991.1,886.9,2991.1z"/>

                <image style="overflow:visible;enable-background:new;" width="3000" height="1250" xlink:href="/static/img/infographic/logo-evolution/logos/1B95D41D.png"  transform="matrix(7.864879e-002 0 0 7.864879e-002 561.2572 2774.2776)">
            </image>
            <polygon class="st11" points="441.2,335.3 458.8,352.5 458.8,319.5         "/>
            <path class="st11" d="M887.9,461.7h-417c-6.6,0-12-5.4-12-12V233.6c0-6.6,5.4-12,12-12H888c6.6,0,12,5.4,12,12v216.1
                C899.9,456.3,894.5,461.7,887.9,461.7z"/>

                <image style="overflow:visible;enable-background:new;" width="1192" height="432" xlink:href="/static/img/infographic/logo-evolution/logos/1B95D41F.png"  transform="matrix(0.2033 0 0 0.2033 558.2293 249.5521)">
            </image>
            <polygon class="st11" points="441.6,2597.9 459.2,2613.6 459.2,2583.5         "/>
            <path class="st11" d="M887.3,2732h-417c-6.6,0-12-5.4-12-12v-194.7c0-6.6,5.4-12,12-12h417.1c6.6,0,12,5.4,12,12V2720
                C899.3,2726.6,893.9,2732,887.3,2732z"/>
            <g>

                    <image style="overflow:visible;enable-background:new;" width="570" height="346" xlink:href="/static/img/infographic/logo-evolution/logos/1B95D41B.png"  transform="matrix(0.4183 0 0 0.4183 564.5241 2503.8645)">
                </image>
            </g>
            <rect x="491.9" y="2631.5" class="st3" width="375.9" height="91.8"/>
            <text transform="matrix(1 0 0 1 659.8967 2644.1904)" class="st21 st5 st6">2013</text>
            <text transform="matrix(1 0 0 1 515.2968 2670.1904)" class="st5 st6">Google simplifies by flattening lettering, </text>
            <text transform="matrix(1 0 0 1 507.3967 2696.1904)" class="st5 st6">removing shadows, and softening angles.</text>
            <polygon class="st11" points="440.3,6.9 457.9,23.6 457.9,-8.3         "/>
            <path class="st11" d="M887,129.1H469.9c-6.6,0-12-5.4-12-12V-91c0-6.6,5.4-12,12-12H887c6.6,0,12,5.4,12,12v208.1
                C899,123.7,893.6,129.1,887,129.1z"/>
            <g>
                <g>
                    <defs>
                        <rect id="SVGID_13_" x="530.5" y="-83.9" width="297.8" height="95.2"/>
                    </defs>
                    <clipPath id="SVGID_14_">
                        <use xlink:href="#SVGID_13_"  style="overflow:visible;"/>
                    </clipPath>
                    <g transform="matrix(1 0 0 1 0 0)" class="st19">

                            <image style="overflow:visible;enable-background:new;" width="580" height="298" xlink:href="/static/img/infographic/logo-evolution/logos/1B95D403.jpeg"  transform="matrix(1.779 0 0 1.779 505.8744 -105.3217)">
                        </image>
                    </g>
                </g>
            </g>
            <rect x="488.1" y="8.8" class="st3" width="383.9" height="97.8"/>
            <text transform="matrix(1 0 0 1 660.7129 21.4928)" class="st21 st5 st6">1997</text>
            <text transform="matrix(1 0 0 1 523.1129 47.4928)" class="st20 st5 st6">Pre-launch Google gets its name from </text>
            <text transform="matrix(1 0 0 1 490.8129 73.4928)" class="st20 st5 st6">“googol,” referring to the near-infinite amount </text>
            <text transform="matrix(1 0 0 1 571.1129 99.4928)" class="st20 st5 st6">of information on the web.</text>
            <polygon class="st11" points="346.1,162.5 328.5,178.1 328.5,148.1         "/>
            <path class="st11" d="M-100.6,277.6h417.1c6.6,0,12-5.4,12-12V70.9c0-6.6-5.4-12-12-12h-417.1c-6.6,0-12,5.4-12,12v194.7
                C-112.6,272.2-107.2,277.6-100.6,277.6z"/>

                <image style="overflow:visible;enable-background:new;" width="396" height="142" xlink:href="/static/img/infographic/logo-evolution/logos/1B95D438.png"  transform="matrix(0.7608 0 0 0.7608 -42.2092 75.0658)">
            </image>
            <rect x="-57.9" y="174.9" class="st3" width="329" height="86.2"/>
            <text transform="matrix(1 0 0 1 86.6411 187.5601)" class="st21 st5 st6">1998</text>
            <text transform="matrix(1 0 0 1 -41.6589 213.5601)" class="st20 st5 st6">The first Google logo sets its official </text>
            <text transform="matrix(1 0 0 1 40.0411 239.5601)" class="st20 st5 st6">color sequence.</text>
            <rect x="488.1" y="339" class="st3" width="383.9" height="91.3"/>
            <text transform="matrix(1 0 0 1 659.9912 351.7213)" class="st21 st5 st6">1999</text>
            <text transform="matrix(1 0 0 1 502.5912 377.7213)" class="st20 st5 st6">The Google logo is designed based on the </text>
            <text transform="matrix(1 0 0 1 495.7912 403.7213)" class="st20 st5 st6">Catull typeface, the font for all its designs up </text>
            <text transform="matrix(1 0 0 1 637.5912 429.7213)" class="st20 st5 st6">until 2015.</text>
            <rect x="497.5" y="2872.3" class="st3" width="363.4" height="157.5"/>
            <text transform="matrix(1 0 0 1 659.0048 2884.9817)" class="st21 st5 st6">2015</text>
            <text transform="matrix(1 0 0 1 533.4048 2910.9817)" class="st5 st6">Google’s logo takes on a sans-serif </text>
            <text transform="matrix(1 0 0 1 509.2048 2936.9817)" class="st5 st6">typeface that is animated and scalable to </text>
            <text transform="matrix(1 0 0 1 607.1048 2962.9817)" class="st5 st6">different screens.</text>
        </g>
    </g>
    <g id="google_icon">
        <g>
            <g>
                <g>
                    <defs>
                        <path id="SVGID_15_" d="M-19.2-348.9h-128.4c-6.2,0-11.3-5.1-11.3-11.3v-128.4c0-6.2,5.1-11.3,11.3-11.3h128.4
                            c6.2,0,11.3,5.1,11.3,11.3v128.4C-7.9-354-12.9-348.9-19.2-348.9z"/>
                    </defs>
                    <clipPath id="SVGID_16_">
                        <use xlink:href="#SVGID_15_"  style="overflow:visible;"/>
                    </clipPath>
                    <g class="st22">

                            <image style="overflow:visible;enable-background:new;" width="1200" height="630" xlink:href="/static/img/infographic/logo-evolution/logos/1B95D438.jpeg"  transform="matrix(0.2425 0 0 0.2425 -230.862 -500.7863)">
                        </image>
                    </g>
                </g>
            </g>
            <rect x="-158.9" y="-325.9" class="st3" width="151" height="41.5"/>
            <text transform="matrix(1 0 0 1 -123.6187 -309.2107)" class="st0 st5" style="font-size:25px;">Google</text>

                <text transform="matrix(1 0 0 1 -123.6187 -309.2107)" class="st5" style="fill:none;stroke:#2B2C3D;stroke-width:0.75;stroke-miterlimit:10; font-size:25px;">Google</text>
        </g>
    </g>
</svg>