<?xml version="1.0" encoding="utf-8"?>
<!-- Generator: Adobe Illustrator 19.0.0, SVG Export Plug-In . SVG Version: 6.00 Build 0)  -->
<svg version="1.1" id="Layer_1" xmlns="http://www.w3.org/2000/svg" xmlns:xlink="http://www.w3.org/1999/xlink" x="0px" y="0px"
     viewBox="0 0 1024 1024" style="enable-background:new 0 0 1024 1024;" xml:space="preserve">
<style type="text/css">
    .st0{fill:#63C7B2;}
    .st1{fill:#FFFFFF;stroke:#FFFFFF;stroke-width:0.3;stroke-miterlimit:10;}
    .st2{font-family:'ProximaNova-Regular';}
    .st3{font-size:14.1848px;}
    .st4{font-size:14.1849px;}
    .st5{opacity:0.5;fill:none;stroke:#6999D1;stroke-miterlimit:10;enable-background:new    ;}
    .st6{fill:none;}
    .st7{font-family:'ArialMT';}
    .st8{font-size:12px;}
    .st9{fill:#FFBC42;}
    .st10{font-size:16.4885px;}
    .st11{font-size:16.887px;}
    .st12{fill:#D81159;}
    .st13{font-size:17.5624px;}
    .st14{font-size:17.5625px;}
    .st15{font-size:10.8078px;}
    .st16{font-size:11.078px;}
    .st17{font-size:10.4024px;}
    .st18{fill:#D6A429;}
    .st19{font-size:11.0779px;}
    .st20{fill:#54A1FF;}
    .st21{clip-path:url(#SVGID_2_);}
    .st22{fill:#FFFFFF;}
    .st23{font-size:18.9135px;}
    .st24{fill:none;stroke:#FFFFFF;stroke-width:0.5;stroke-miterlimit:10;}
    .st25{font-size:14.1851px;}
    .st26{fill:none;stroke:#FFFFFF;stroke-width:0.3;stroke-miterlimit:10;}
    .st27{font-size:14.185px;}
    .st28{font-size:14.1852px;}
    .st29{font-size:13px;}
</style>
<g id="core-center">
    <path id="XMLID_68_" opacity="0.5" fill="none" stroke="#6999D1" stroke-miterlimit="10" d="M452.266,684.983
        c-67.095-28.35-114.19-94.759-114.218-172.179c-0.011-31.045,7.547-60.325,20.93-86.095"/>
    <path id="XMLID_x5F_1_x5F_" fill="none" d="M539.92,701.729c24.164-2.361,48.265-9.499,70.943-21.816
        c22.678-12.317,41.786-28.647,56.922-47.631"/>
    <text id="XMLID_67_">   <textPath  xlink:href="#XMLID_x5F_1_x5F_" startOffset="0.012%">
<tspan  fill="#FFBC42" font-family="'ProximaNova-Regular'" font-size="16.4885px">CORE </tspan><tspan  fill="#FFBC42" font-family="'ProximaNova-Regular'" font-size="16.887px">Operations</tspan>    </textPath>
</text>
    <path id="XMLID_66_" opacity="0.5" fill="none" stroke="#6999D1" stroke-miterlimit="10" d="M534.757,699.213
        c-28.843,1.174-57.739-3.838-84.528-15.019"/>
    <path id="XMLID_65_" opacity="0.5" fill="none" stroke="#6999D1" stroke-miterlimit="10" d="M688.192,425.431
        c14.229,26.361,22.311,56.53,22.322,88.587c0.018,48.388-18.353,92.487-48.51,125.691"/>
    <path id="XMLID_x5F_2_x5F__1_" fill="none" d="M564.015,342.386c49.653,11.227,92.187,42.334,118.239,84.925"/>
    <text id="XMLID_64_">   <textPath  xlink:href="#XMLID_x5F_2_x5F__1_" startOffset="5.859%">
<tspan  fill="#D81159" font-family="'ProximaNova-Regular'" font-size="17.5624px">CORE Enterprises</tspan>   </textPath>
</text>
    <path id="XMLID_63_" opacity="0.5" fill="none" stroke="#6999D1" stroke-miterlimit="10" d="M448.878,344.662
        c23.22-10.36,48.942-16.123,76.011-16.133c17.742-0.007,34.908,2.459,51.171,7.072"/>
    <path id="XMLID_x5F_3_x5F__1_" fill="none" d="M360.329,434.943c19.449-37.448,51.199-67.483,89.899-84.749"/>
    <text id="XMLID_62_">   <textPath  xlink:href="#XMLID_x5F_3_x5F__1_" startOffset="8.879%">
<tspan  fill="#63C7B2" font-family="'ProximaNova-Regular'" font-size="17.5625px">CORE Impulse</tspan>   </textPath>
</text>
    <path id="XMLID_x5F_4_x5F_" fill="none" d="M368.922,533.217c-9.82-86.275,52.16-164.175,138.434-173.995
        s164.175,52.16,173.995,138.434s-52.16,164.175-138.434,173.995S378.742,619.492,368.922,533.217"/>
    <text id="XMLID_60_">   <textPath  xlink:href="#XMLID_x5F_4_x5F_" startOffset="0.7325%">
<tspan  fill="#63C7B2" font-family="'ProximaNova-Regular'" font-size="10.8078px"> </tspan><tspan  fill="#63C7B2" font-family="'ProximaNova-Regular'" font-size="11.078px">CORE’s media outlet on campus and around the world</tspan><tspan  font-family="'ProximaNova-Regular'" font-size="10.8078px">  </tspan><tspan  fill="#D81159" font-family="'ProximaNova-Regular'" font-size="11.078px">Initiatives providing products &amp; services</tspan><tspan  fill="#D81159" font-family="'ProximaNova-Regular'" font-size="10.8078px"> </tspan><tspan  font-family="'ProximaNova-Regular'" font-size="10.8078px">   </tspan>    </textPath>
</text>
    <path id="XMLID_x5F_5_x5F_" fill="none" d="M362.356,530.298c1.108,13.529,4.762,35.991,18.109,60.118
        c4.025,7.276,23.189,40.475,64.079,62.144c70.896,37.571,143.66,6.862,146.965,5.404c7.945-3.507,68.74-31.537,89.154-99.296
        c11.825-39.248,4.371-72.804,0-87.813"/>
    <text id="XMLID_9_">    <textPath  xlink:href="#XMLID_x5F_5_x5F_" startOffset="0.0098%">
<tspan  font-family="'ProximaNova-Regular'" font-size="10.4024px"> </tspan><tspan  fill="#D6A429" font-family="'ProximaNova-Regular'" font-size="11.0779px">The heart of CORE, dedicated to building programming around the “Inspire, Educate, Launch” Thesis</tspan>   </textPath>
</text>
    <g id="welcome-core">
        <g id="XMLID_61_">
            <circle id="XMLID_118_" fill="#54A1FF" cx="525.43" cy="514.086" r="139.617"/>
        </g>
        <g id="XMLID_14_">
            <defs>
                <rect id="XMLID_7_" x="403.564" y="468.393" width="235.627" height="115.042"/>
            </defs>
            <clipPath id="XMLID_13_">
                <use xlink:href="#XMLID_7_"  overflow="visible"/>
            </clipPath>
            <g transform="matrix(1 0 0 1 0 3.051758e-05)" clip-path="url(#XMLID_13_)">

                    <image overflow="visible" width="2400" height="960" id="XMLID_8_" xlink:href="/static/img/infographic_logo.png" transform="matrix(0.2929 0 0 0.2929 360.9745 374.3805)">
                </image>
            </g>
        </g>

            <text id="XMLID_6_" transform="matrix(1 0 0 1 464.8306 473.562)" fill="#FFFFFF" stroke="#FFFFFF" stroke-width="0.5" stroke-miterlimit="10" font-family="'ProximaNova-Regular'" font-size="18.9135px">WELCOME TO</text>
    </g>
</g>
<g id="tech-gen">
    <g id="tech-circle">
        <circle id="tech-path" class="st0" cx="525" cy="267.1" r="39.6"/>
        <text id="tech-name" transform="matrix(7.800076e-04 1 -1 7.800076e-04 520.635 234.0242)" class="st1 st2 st3">Tech Team</text>
    </g>
    <text id="tech-desc" transform="matrix(1 1.200000e-03 -1.200000e-03 1 458.8038 168.7612)"><tspan x="0" y="0" fill="#63C7B2" font-family="'ProximaNova-Regular'" font-size="14.1849px">The brains and coders</tspan><tspan x="-32.143" y="16.211" fill="#63C7B2" font-family="'ProximaNova-Regular'" font-size="14.1849px">behind our website and our</tspan><tspan x="-11.873" y="32.422" fill="#63C7B2" font-family="'ProximaNova-Regular'" font-size="14.1849px">upcoming tech products</tspan></text>
</g>
<g id="dfirm-gen">
        <text id="design-firm-desc" transform="matrix(1 1.200000e-03 -1.200000e-03 1 658.2022 217.8424)"><tspan x="0" y="0" fill="#D81159" font-family="'ProximaNova-Regular'" font-size="14.1851px">Providing graphic designs</tspan><tspan x="0" y="16.212" fill="#D81159" font-family="'ProximaNova-Regular'" font-size="14.1851px">for the CU community </tspan></text>
    <g id="dfirm-circle">
        <circle id="dfirm-path" class="st12" cx="629.7" cy="289.6" r="39.6"/>
        <text id="dfirm-name" transform="matrix(0.4494 -0.8933 0.8933 0.4494 618.6276 308.0627)"><tspan x="0" y="0" fill="#FFFFFF" stroke="#FFFFFF" stroke-width="0.3" stroke-miterlimit="10" font-family="'ProximaNova-Regular'" font-size="14.1852px">Design</tspan><tspan x="8.263" y="16.212" fill="#FFFFFF" stroke="#FFFFFF" stroke-width="0.3" stroke-miterlimit="10" font-family="'ProximaNova-Regular'" font-size="14.1852px">Firm</tspan></text>
    </g>
</g>

<g id="sip-gen">
    <text id="sip-desc" transform="matrix(1 1.200000e-03 -1.200000e-03 1 58.4097 567.6447)"><tspan x="0" y="0" fill="#FFBC42" font-family="'ProximaNova-Regular'" font-size="14.1851px">Startup Internship Program:</tspan><tspan x="5.164" y="16.212" fill="#FFBC42" font-family="'ProximaNova-Regular'" font-size="14.1851px">opportunity for students to</tspan><tspan x="51.59" y="32.423" fill="#FFBC42" font-family="'ProximaNova-Regular'" font-size="14.1851px">intern with startups</tspan></text>
    <g id="sip-circle">
        <circle id="sip-path" class="st9" cx="283.8" cy="559.5" r="39.6"/>
        <text id="sip-name" transform="matrix(0.9566 -0.2914 0.2914 0.9566 276.6917 567.4032)" class="st1 st2 st3">SIP</text>
    </g>
</g>

<g id="writing-gen">
    <text id="writing-desc" transform="matrix(1 1.200000e-03 -1.200000e-03 1 24.9337 415.5976)"><tspan x="0" y="0" fill="#63C7B2" font-family="'ProximaNova-Regular'" font-size="14.1851px">Crafting content ranging from arts</tspan><tspan x="-16.384" y="16.211" fill="#63C7B2" font-family="'ProximaNova-Regular'" font-size="14.1851px">and culture to tech and business, for</tspan><tspan x="4.085" y="32.423" fill="#63C7B2" font-family="'ProximaNova-Regular'" font-size="14.1851px">students and entrepreneurs alike</tspan></text>
    <g id="writing-circle">
        <circle id="writing-path" class="st0" cx="285.9" cy="451" r="39.6"/>
        <text id="writing-name" transform="matrix(0.9647 0.2633 -0.2633 0.9647 264.5564 442.4651)"><tspan x="0" y="0" fill="#FFFFFF" stroke="#FFFFFF" stroke-width="0.3" stroke-miterlimit="10" font-family="'ProximaNova-Regular'" font-size="14.185px">Writing </tspan><tspan x="6.185" y="16.211" fill="#FFFFFF" stroke="#FFFFFF" stroke-width="0.3" stroke-miterlimit="10" font-family="'ProximaNova-Regular'" font-size="14.185px">Team</tspan></text>
    </g>
</g>

<g id="biz-gen">
    <text id="biz-dev-desc" transform="matrix(1 1.200000e-03 -1.200000e-03 1 46.4874 293.5678)"><tspan x="0" y="0" fill="#63C7B2" font-family="'ProximaNova-Regular'" font-size="14.185px">Developing strategic opportunities for</tspan><tspan x="-26.966" y="16.211" fill="#63C7B2" font-family="'ProximaNova-Regular'" font-size="14.185px">Impulse through data analytics, marketing,</tspan><tspan x="-20.938" y="32.423" fill="#63C7B2" font-family="'ProximaNova-Regular'" font-size="14.185px">sponsorships, outreach, and partnerships</tspan></text>
    <g id="biz-circle">
        <circle id="biz-path" class="st0" cx="333.2" cy="354.5" r="39.6"/>
        <text id="biz-name" transform="matrix(0.7456 0.6664 -0.6664 0.7456 313.7792 334.6188)"><tspan x="0" y="0" fill="#FFFFFF" stroke="#FFFFFF" stroke-width="0.3" stroke-miterlimit="10" font-family="'ProximaNova-Regular'" font-size="14.1851px">Business</tspan><tspan x="15.327" y="16.211" fill="#FFFFFF" stroke="#FFFFFF" stroke-width="0.3" stroke-miterlimit="10" font-family="'ProximaNova-Regular'" font-size="14.1851px">Dev</tspan></text>
    </g>
</g>

<g id="dteam-gen">
    <text id="dteam-desc" transform="matrix(1 1.200000e-03 -1.200000e-03 1 194.2398 206.6248)"><tspan x="0" y="0" fill="#63C7B2" font-family="'ProximaNova-Regular'" font-size="14.1851px">The artistic branch of Impulse,</tspan><tspan x="9.547" y="16.211" fill="#63C7B2" font-family="'ProximaNova-Regular'" font-size="14.1851px">from interactive infographics</tspan><tspan x="16.937" y="32.423" fill="#63C7B2" font-family="'ProximaNova-Regular'" font-size="14.1851px">to user-friendly web design</tspan></text>
    <g id="dteam-circle">
        <circle id="dteam-path" class="st0" cx="419.5" cy="289.7" r="39.6"/>
        <text id="dteam-name" transform="matrix(0.4225 0.9064 -0.9064 0.4225 413.7714 268.7805)"><tspan x="0" y="0" fill="#FFFFFF" stroke="#FFFFFF" stroke-width="0.3" stroke-miterlimit="10" font-family="'ProximaNova-Regular'" font-size="14.1849px">Design</tspan><tspan x="4.326" y="16.211" fill="#FFFFFF" stroke="#FFFFFF" stroke-width="0.3" stroke-miterlimit="10" font-family="'ProximaNova-Regular'" font-size="14.1849px">Team</tspan></text>
    </g>
</g>

<g id="alma-gen">
    <g id="alma-circle">
        <circle id="alma-path" class="st12" cx="715.2" cy="354.4" r="39.6"/>
        <text id="alma-name" transform="matrix(0.8625 -0.5061 0.5061 0.8625 688.7261 373.9657)" class="st1 st2 st3">Almaworks</text>
    </g>
    <text id="alma-desc" transform="matrix(1 1.200000e-03 -1.200000e-03 1 766.2022 282.8424)"><tspan x="0" y="0" fill="#D81159" font-family="'ProximaNova-Regular'" font-size="14.185px">Our in-house tech accelerator</tspan><tspan x="0" y="16.211" fill="#D81159" font-family="'ProximaNova-Regular'" font-size="14.185px">to help early startups achieve</tspan><tspan x="0" y="32.423" fill="#D81159" font-family="'ProximaNova-Regular'" font-size="14.185px">significant growth </tspan></text>
</g>

<g id="keynote-gen">
    <g id="keynote-circle">
        <circle id="keynote-path" class="st9" cx="763.5" cy="450.8" r="39.6"/>
        <text id="keynote-name" transform="matrix(0.9697 -0.2444 0.2444 0.9697 734.8758 447.1711)"><tspan x="0" y="0" fill="#FFFFFF" stroke="#FFFFFF" stroke-width="0.3" stroke-miterlimit="10" font-family="'ProximaNova-Regular'" font-size="14.1852px">Keynote </tspan><tspan x="-0.149" y="16.212" fill="#FFFFFF" stroke="#FFFFFF" stroke-width="0.3" stroke-miterlimit="10" font-family="'ProximaNova-Regular'" font-size="14.1852px">Speaker </tspan><tspan x="8.228" y="32.423" fill="#FFFFFF" stroke="#FFFFFF" stroke-width="0.3" stroke-miterlimit="10" font-family="'ProximaNova-Regular'" font-size="14.1852px">Series</tspan></text>
    </g>
    <text id="keynote-desc" transform="matrix(1 1.200000e-03 -1.200000e-03 1 821.2022 412.8424)"><tspan x="0" y="0" fill="#FFBC42" font-family="'ProximaNova-Regular'" font-size="14.1852px">Bringing big-name speakers</tspan><tspan x="0" y="16.212" fill="#FFBC42" font-family="'ProximaNova-Regular'" font-size="14.1852px">from the world of tech and</tspan><tspan x="0" y="32.423" fill="#FFBC42" font-family="'ProximaNova-Regular'" font-size="14.1852px">entrepreneurship</tspan></text>
</g>
<g id="conf-gen">
    <g id="conf-circle">
        <circle id="conf-path" class="st9" cx="763.5" cy="559.7" r="39.6"/>
        <text id="conf-name" transform="matrix(0.9424 0.3345 -0.3345 0.9424 728.6772 550.756)" class="st1 st2 st29">Conferences</text>
    </g>
    <text id="conf-desc" transform="matrix(1 1.200000e-03 -1.200000e-03 1 820.2022 563.8434)"><tspan x="0" y="0" fill="#FFBC42" font-family="'ProximaNova-Regular'" font-size="14.1852px">Annual, daylong events,</tspan><tspan x="0" y="16.211" fill="#FFBC42" font-family="'ProximaNova-Regular'" font-size="14.1852px">often in collaboration with</tspan><tspan x="0" y="32.423" fill="#FFBC42" font-family="'ProximaNova-Regular'" font-size="14.1852px">our University partners </tspan></text>
</g>

<g id="themed-gen">
    <g id="themed-circle">
        <circle id="themed-path" class="st9" cx="715.3" cy="660.4" r="39.6"/>
        <text id="themed-name" transform="matrix(0.8201 0.5722 -0.5722 0.8201 695.9696 643.1587)"><tspan x="0" y="0" fill="#FFFFFF" stroke="#FFFFFF" stroke-width="0.3" stroke-miterlimit="10" font-family="'ProximaNova-Regular'" font-size="14.1853px">Themed</tspan><tspan x="6.376" y="16.212" fill="#FFFFFF" stroke="#FFFFFF" stroke-width="0.3" stroke-miterlimit="10" font-family="'ProximaNova-Regular'" font-size="14.1853px">Series</tspan></text>
    </g>
    <text id="themed-desc" transform="matrix(1 1.200000e-03 -1.200000e-03 1 750.2022 707.8434)"><tspan x="0" y="0" fill="#FFBC42" font-family="'ProximaNova-Regular'" font-size="14.185px">Weekly events covering entrepreneurial</tspan><tspan x="0" y="16.211" fill="#FFBC42" font-family="'ProximaNova-Regular'" font-size="14.185px">topics from VC programs, Women in Tech,</tspan><tspan x="0" y="32.423" fill="#FFBC42" font-family="'ProximaNova-Regular'" font-size="14.185px">Social Entrepeneurship, and much more</tspan></text>
</g>

<g id="social-gen">
    <g id="social-circle">
        <circle id="social-path" class="st9" cx="629.9" cy="732.1" r="39.6"/>
        <text id="social-name" transform="matrix(0.4636 0.8861 -0.8861 0.4636 624.3442 710.0642)"><tspan x="0" y="0" fill="#FFFFFF" stroke="#FFFFFF" stroke-width="0.3" stroke-miterlimit="10" font-family="'ProximaNova-Regular'" font-size="14.1851px">Startup</tspan><tspan x="0.418" y="16.212" fill="#FFFFFF" stroke="#FFFFFF" stroke-width="0.3" stroke-miterlimit="10" font-family="'ProximaNova-Regular'" font-size="14.1851px">Socials</tspan></text>
    </g>
    <text id="social-desc" transform="matrix(1 1.200000e-03 -1.200000e-03 1 641.2022 795.8434)"><tspan x="0" y="0" fill="#FFBC42" font-family="'ProximaNova-Regular'" font-size="14.1852px">Meet your entrepreneurial</tspan><tspan x="0" y="16.212" fill="#FFBC42" font-family="'ProximaNova-Regular'" font-size="14.1852px">community in and</tspan><tspan x="0" y="32.423" fill="#FFBC42" font-family="'ProximaNova-Regular'" font-size="14.1852px">around campus</tspan></text>
</g>

<g id="expo-gen">
    <g id="expo-circle">
        <circle id="expo-path" class="st9" cx="522.4" cy="758.4" r="39.6"/>
        <text id="expo-name" transform="matrix(0.0185 0.9998 -0.9998 0.0185 525.5939 737.2144)"><tspan x="0" y="0" fill="#FFFFFF" stroke="#FFFFFF" stroke-width="0.3" stroke-miterlimit="10" font-family="'ProximaNova-Regular'" font-size="14.1851px">Startup</tspan><tspan x="6.772" y="16.211" fill="#FFFFFF" stroke="#FFFFFF" stroke-width="0.3" stroke-miterlimit="10" font-family="'ProximaNova-Regular'" font-size="14.1851px">Expo</tspan></text>
    </g>
    <text id="expo-desc" transform="matrix(1 1.200000e-03 -1.200000e-03 1 459.0381 825.7707)"><tspan x="0" y="0" fill="#FFBC42" font-family="'ProximaNova-Regular'" font-size="14.1849px">Explore and interact</tspan><tspan x="0" y="16.211" fill="#FFBC42" font-family="'ProximaNova-Regular'" font-size="14.1849px">with local startups here</tspan><tspan x="0" y="32.423" fill="#FFBC42" font-family="'ProximaNova-Regular'" font-size="14.1849px">in New York</tspan></text>
</g>

<g id="glob-gen">
    <g id="glob-circle">
        <circle id="glob-path" class="st9" cx="412.4" cy="732.2" r="39.6"/>
        <text id="glob-name" transform="matrix(0.4648 -0.8854 0.8854 0.4648 397.2123 746.335)"><tspan x="0" y="0" fill="#FFFFFF" stroke="#FFFFFF" stroke-width="0.3" stroke-miterlimit="10" font-family="'ProximaNova-Regular'" font-size="13.5096px">Global</tspan><tspan x="-13.8" y="16.212" fill="#FFFFFF" stroke="#FFFFFF" stroke-width="0.3" stroke-miterlimit="10" font-family="'ProximaNova-Regular'" font-size="13.5096px">Tech Treks</tspan></text>
    </g>
    <text id="glob-treks-desc" transform="matrix(1 1.200000e-03 -1.200000e-03 1 273.6319 791.6976)"><tspan x="0" y="0" fill="#FFBC42" font-family="'ProximaNova-Regular'" font-size="14.185px">Trek to tech centers</tspan><tspan x="18.653" y="16.212" fill="#FFBC42" font-family="'ProximaNova-Regular'" font-size="14.185px">around the world</tspan></text>
</g>
<g id="ewop-gen">
    <text id="ewop-desc" transform="matrix(1 1.200000e-03 -1.200000e-03 1 47.5157 704.5805)"><tspan x="0" y="0" fill="#FFBC42" font-family="'ProximaNova-Regular'" font-size="14.185px">Entrepreneurship Winter Orientation</tspan><tspan x="-3.448" y="16.212" fill="#FFBC42" font-family="'ProximaNova-Regular'" font-size="14.185px">Program: introduces new students to</tspan><tspan x="50.228" y="32.423" fill="#FFBC42" font-family="'ProximaNova-Regular'" font-size="14.185px">the startup ecosystem in NY</tspan></text>
    <g id="ewop-circle">
        <circle id="ewop-path" class="st9" cx="325.5" cy="660.5" r="39.6"/>
        <text id="ewop-name" transform="matrix(0.813 -0.5823 0.5823 0.813 311.3996 675.9188)" class="st1 st2 st3">EWOP</text>
    </g>
</g>
</svg>
